<svg width="24" height="14" viewBox="0 0 24 14" fill="none" xmlns="http://www.w3.org/2000/svg">
<path d="M22.7056 2.70787L12.7067 12.7067C12.6139 12.7997 12.5036 12.8735 12.3822 12.9238C12.2608 12.9741 12.1307 13 11.9993 13C11.8679 13 11.7378 12.9741 11.6164 12.9238C11.495 12.8735 11.3848 12.7997 11.2919 12.7067L1.29302 2.70787C1.1054 2.52025 1 2.26578 1 2.00044C1 1.73511 1.1054 1.48064 1.29302 1.29302C1.48064 1.1054 1.73511 1 2.00044 1C2.26578 1 2.52025 1.1054 2.70787 1.29302L11.9993 10.5857L21.2908 1.29302C21.3837 1.20012 21.494 1.12643 21.6154 1.07615C21.7367 1.02588 21.8668 1 21.9982 1C22.1296 1 22.2597 1.02588 22.3811 1.07615C22.5024 1.12643 22.6127 1.20012 22.7056 1.29302C22.7985 1.38592 22.8722 1.49621 22.9225 1.61759C22.9728 1.73897 22.9987 1.86906 22.9987 2.00044C22.9987 2.13182 22.9728 2.26192 22.9225 2.3833C22.8722 2.50468 22.7985 2.61497 22.7056 2.70787Z" fill="#181D14" stroke="#181D14"/>
</svg>
