<svg width="24" height="14" viewBox="0 0 24 14" fill="none" xmlns="http://www.w3.org/2000/svg">
<path d="M22.7056 11.2921L12.7067 1.29325C12.6139 1.20029 12.5036 1.12654 12.3822 1.07622C12.2608 1.0259 12.1307 1 11.9993 1C11.8679 1 11.7378 1.0259 11.6164 1.07622C11.495 1.12654 11.3848 1.20029 11.2919 1.29325L1.29302 11.2921C1.1054 11.4798 1 11.7342 1 11.9996C1 12.2649 1.1054 12.5194 1.29302 12.707C1.48064 12.8946 1.73511 13 2.00044 13C2.26578 13 2.52025 12.8946 2.70787 12.707L11.9993 3.41427L21.2908 12.707C21.3837 12.7999 21.494 12.8736 21.6154 12.9238C21.7367 12.9741 21.8668 13 21.9982 13C22.1296 13 22.2597 12.9741 22.3811 12.9238C22.5024 12.8736 22.6127 12.7999 22.7056 12.707C22.7985 12.6141 22.8722 12.5038 22.9225 12.3824C22.9728 12.261 22.9987 12.1309 22.9987 11.9996C22.9987 11.8682 22.9728 11.7381 22.9225 11.6167C22.8722 11.4953 22.7985 11.385 22.7056 11.2921Z" fill="#181D14" stroke="#181D14"/>
</svg>
