<svg width="127" height="24" viewBox="0 0 127 24" fill="none" xmlns="http://www.w3.org/2000/svg">
<path d="M20.2722 23.9999H6.49871C4.80647 23.9999 3.43555 22.6289 3.43555 20.9367C3.43555 19.2445 4.80647 17.8735 6.49871 17.8735H20.2722C21.9645 17.8735 23.3354 19.2445 23.3354 20.9367C23.3354 22.6289 21.9645 23.9999 20.2722 23.9999Z" fill="#04DA00"/>
<path d="M23.7217 18.0234C22.6721 18.0234 21.6439 17.4664 21.0655 16.5025L14.1895 4.59258C13.3541 3.13597 13.8467 1.25094 15.3033 0.415534C16.7599 -0.419874 18.645 0.0728026 19.4804 1.52941L26.3565 13.4393C27.1919 14.8959 26.6992 16.781 25.2426 17.6164C24.7499 17.8948 24.2358 18.0234 23.7217 18.0234Z" fill="#04DA00"/>
<path d="M3.05052 18.0236C2.53643 18.0236 2.00091 17.8951 1.52966 17.6166C0.0730465 16.7812 -0.441054 14.8962 0.415776 13.4396L7.29183 1.52965C8.12723 0.0730446 10.0123 -0.441053 11.4689 0.415776C12.9255 1.25118 13.4396 3.13621 12.5828 4.59282L5.7067 16.5027C5.14976 17.4667 4.12156 18.0236 3.05052 18.0236Z" fill="#04DA00"/>
<path d="M37.0558 23.6471H31.7617V0H49.5147V4.76471H37.0558V10.1647H48.9852V14.8941H37.0558V23.6471Z" fill="#181D14"/>
<path d="M57.1484 23.6471H51.8896V5.89412H56.7954V8.75294H57.0072C57.8896 6.95294 59.4778 5.54118 61.9837 5.54118C65.6896 5.54118 67.066 8.29412 67.066 11.8588V13.4824H61.8072V12.5294C61.8072 10.6235 61.2072 10.0235 59.5484 10.0235C57.9249 10.0235 57.1484 10.5882 57.1484 12.5294V23.6471Z" fill="#181D14"/>
<path d="M73.6498 24C70.5086 24 68.0733 22.3412 68.0733 19.1294C68.0733 16.3765 70.0498 14.6824 73.7203 14.1176L79.7909 13.2V12.6353C79.7909 10.5529 78.6615 10.1647 76.5792 10.1647C74.4262 10.1647 73.5792 10.7647 73.5792 12.5647V12.9529H68.5321V12.5647C68.5321 8.32941 71.8145 5.54118 76.8262 5.54118C82.0498 5.54118 84.8027 8.4 84.8027 13.1294V23.6471H79.8968V21.2471H79.6851C78.7321 22.5529 76.9321 24 73.6498 24ZM73.1203 18.7059C73.1203 19.6588 73.8615 19.9765 75.4145 19.9765C77.5674 19.9765 79.7909 19.4118 79.7909 16.6588L74.7086 17.4353C73.6145 17.6118 73.1203 17.9647 73.1203 18.7059Z" fill="#181D14"/>
<path d="M94.8974 24C89.8856 24 87.2033 20.3647 87.2033 14.7882C87.2033 9.17647 90.0621 5.54118 94.8974 5.54118C97.615 5.54118 99.2385 6.74118 100.05 8.22353H100.262V0H105.521V23.6471H100.615V21.0353H100.439C99.5209 22.9412 97.5091 24 94.8974 24ZM92.4621 14.7882C92.4621 18 93.3091 19.4824 96.3797 19.4824C98.8856 19.4824 100.262 18.6 100.262 16.2V13.3412C100.262 10.9412 98.8856 10.0588 96.3797 10.0588C93.3091 10.0588 92.4621 11.5412 92.4621 14.7882Z" fill="#181D14"/>
<path d="M117.058 24C111.341 24 107.952 20.4 107.952 14.7882C107.952 9.14118 111.341 5.54118 117.058 5.54118C122.741 5.54118 126.058 9.14118 126.058 14.7882C126.058 20.4 122.741 24 117.058 24ZM117.058 19.3412C119.917 19.3412 120.905 18.2118 120.905 14.7882C120.905 11.3294 119.917 10.2 117.058 10.2C114.164 10.2 113.176 11.3294 113.176 14.7882C113.176 18.2118 114.164 19.3412 117.058 19.3412Z" fill="#181D14"/>
</svg>
