<svg width="534" height="24" viewBox="0 0 534 24" fill="none" xmlns="http://www.w3.org/2000/svg">
<path d="M0 3.52537C8.06049 3.30649 12.5426 7.56246 16.0386 11.0081C19.3071 14.186 21.9136 16.6804 27.2161 16.5885C32.5667 16.4262 35.0075 13.7624 38.1171 10.4221C41.4197 6.79989 45.6048 2.33905 53.7136 2.0497C61.7741 1.83081 66.2562 6.08682 69.7522 9.53247C73.0207 12.7104 75.6272 15.2048 80.9296 15.1129C86.2803 14.9505 88.7211 12.2867 91.8306 8.94641C95.1333 5.32422 99.3184 0.86338 107.427 0.574027C115.488 0.355143 119.97 4.61115 123.466 8.0568C126.734 11.2347 129.341 13.7291 134.643 13.6372L134.864 20.5147C126.804 20.7336 122.322 16.4777 118.826 13.032C115.557 9.85415 112.951 7.35976 107.648 7.45165C102.298 7.61402 99.8568 10.2778 96.7472 13.6181C93.4446 17.2403 89.2594 21.7011 81.1507 21.9904C73.0902 22.2093 68.6081 17.9534 65.112 14.5077C61.8435 11.3298 59.237 8.8354 53.9346 8.92729C48.5839 9.08966 46.1431 11.7534 43.0336 15.0938C39.731 18.7159 35.5458 23.1767 27.4371 23.4661C19.3766 23.685 14.8945 19.429 11.3984 15.9834C8.12993 12.8055 5.52339 10.3111 0.220982 10.403L0 3.52537Z" fill="#04DA00"/>
<path d="M265.831 3.52537C273.938 3.30649 278.446 7.56246 281.962 11.0081C285.25 14.186 287.871 16.6804 293.204 16.5885C298.586 16.4262 301.041 13.7624 304.168 10.4221C307.49 6.79989 311.7 2.33905 319.855 2.0497C327.962 1.83081 332.47 6.08682 335.986 9.53247C339.274 12.7104 341.895 15.2048 347.229 15.1129C352.61 14.9505 355.065 12.2867 358.193 8.94641C361.514 5.32422 365.724 0.86338 373.879 0.574027C381.986 0.355143 386.494 4.61115 390.011 8.0568C393.298 11.2347 395.92 13.7291 401.253 13.6372L401.475 20.5147C393.368 20.7336 388.86 16.4777 385.344 13.032C382.056 9.85415 379.435 7.35976 374.101 7.45165C368.72 7.61402 366.265 10.2778 363.137 13.6181C359.816 17.2403 355.606 21.7011 347.451 21.9904C339.344 22.2093 334.836 17.9534 331.319 14.5077C328.032 11.3298 325.41 8.8354 320.077 8.92729C314.696 9.08966 312.241 11.7534 309.113 15.0938C305.792 18.7159 301.582 23.1767 293.427 23.4661C285.32 23.685 280.812 19.429 277.295 15.9834C274.008 12.8055 271.386 10.3111 266.053 10.403L265.831 3.52537Z" fill="#04DA00"/>
<path d="M268.169 3.52537C260.062 3.30649 255.554 7.56246 252.038 11.0081C248.75 14.186 246.129 16.6804 240.796 16.5885C235.414 16.4262 232.959 13.7624 229.832 10.4221C226.51 6.79989 222.3 2.33905 214.145 2.0497C206.038 1.83081 201.53 6.08682 198.014 9.53247C194.726 12.7104 192.105 15.2048 186.771 15.1129C181.39 14.9505 178.935 12.2867 175.807 8.94641C172.486 5.32422 168.276 0.86338 160.121 0.574027C152.014 0.355143 147.506 4.61115 143.989 8.0568C140.702 11.2347 138.08 13.7291 132.747 13.6372L132.525 20.5147C140.632 20.7336 145.14 16.4777 148.656 13.032C151.944 9.85415 154.565 7.35976 159.899 7.45165C165.28 7.61402 167.735 10.2778 170.863 13.6181C174.184 17.2403 178.394 21.7011 186.549 21.9904C194.656 22.2093 199.164 17.9534 202.681 14.5077C205.968 11.3298 208.59 8.8354 213.923 8.92729C219.304 9.08966 221.759 11.7534 224.887 15.0938C228.208 18.7159 232.418 23.1767 240.573 23.4661C248.68 23.685 253.188 19.429 256.705 15.9834C259.992 12.8055 262.614 10.3111 267.947 10.403L268.169 3.52537Z" fill="#04DA00"/>
<path d="M534 3.52537C525.94 3.30649 521.457 7.56246 517.961 11.0081C514.693 14.186 512.086 16.6804 506.784 16.5885C501.433 16.4262 498.993 13.7624 495.883 10.4221C492.58 6.79989 488.395 2.33905 480.286 2.0497C472.226 1.83081 467.744 6.08682 464.248 9.53247C460.979 12.7104 458.373 15.2048 453.07 15.1129C447.72 14.9505 445.279 12.2867 442.169 8.94641C438.867 5.32422 434.682 0.86338 426.573 0.574027C418.512 0.355143 414.03 4.61115 410.534 8.0568C407.266 11.2347 404.659 13.7291 399.357 13.6372L399.136 20.5147C407.196 20.7336 411.678 16.4777 415.174 13.032C418.443 9.85415 421.049 7.35976 426.352 7.45165C431.702 7.61402 434.143 10.2778 437.253 13.6181C440.555 17.2403 444.741 21.7011 452.849 21.9904C460.91 22.2093 465.392 17.9534 468.888 14.5077C472.156 11.3298 474.763 8.8354 480.065 8.92729C485.416 9.08966 487.857 11.7534 490.966 15.0938C494.269 18.7159 498.454 23.1767 506.563 23.4661C514.623 23.685 519.106 19.429 522.602 15.9834C525.87 12.8055 528.477 10.3111 533.779 10.403L534 3.52537Z" fill="#04DA00"/>
</svg>
