<svg width="676" height="29" viewBox="0 0 676 29" fill="none" xmlns="http://www.w3.org/2000/svg">
<path d="M0 3.74642C10.2039 3.46933 15.8779 8.85704 20.3036 13.219C24.4412 17.2419 27.7409 20.3996 34.4533 20.2833C41.2268 20.0778 44.3166 16.7057 48.2531 12.4771C52.4339 7.89169 57.732 2.24464 67.997 1.87834C78.2009 1.60125 83.8749 6.989 88.3006 11.3509C92.4382 15.3739 95.7378 18.5316 102.45 18.4152C109.224 18.2097 112.314 14.8376 116.25 10.609C120.431 6.02361 125.729 0.376563 135.994 0.0102651C146.198 -0.266823 151.872 5.12092 156.298 9.48284C160.435 13.5058 163.735 16.6635 170.447 16.5472L170.727 25.2536C160.523 25.5307 154.849 20.143 150.423 15.7811C146.286 11.7581 142.986 8.60044 136.274 8.71677C129.5 8.92231 126.41 12.2944 122.474 16.523C118.293 21.1084 112.995 26.7554 102.73 27.1217C92.5261 27.3987 86.8521 22.0111 82.4264 17.6492C78.2888 13.6262 74.9891 10.4685 68.2767 10.5848C61.5032 10.7904 58.4134 14.1625 54.477 18.391C50.2961 22.9764 44.9981 28.6234 34.7331 28.9897C24.5292 29.2668 18.8552 23.8792 14.4295 19.5172C10.2918 15.4943 6.99216 12.3366 0.279745 12.4529L0 3.74642Z" fill="#04DA00"/>
<path d="M336.52 3.74642C346.782 3.46933 352.489 8.85704 356.94 13.219C361.102 17.2419 364.421 20.3996 371.172 20.2833C377.985 20.0778 381.092 16.7057 385.051 12.4771C389.257 7.89169 394.585 2.24464 404.91 1.87834C415.172 1.60125 420.879 6.989 425.331 11.3509C429.492 15.3739 432.811 18.5316 439.562 18.4152C446.375 18.2097 449.482 14.8376 453.442 10.609C457.647 6.02361 462.975 0.376563 473.3 0.0102651C483.562 -0.266823 489.269 5.12092 493.721 9.48284C497.882 13.5058 501.201 16.6635 507.952 16.5472L508.233 25.2536C497.971 25.5307 492.264 20.143 487.812 15.7811C483.651 11.7581 480.332 8.60044 473.581 8.71677C466.768 8.92231 463.661 12.2944 459.701 16.523C455.496 21.1084 450.168 26.7554 439.843 27.1217C429.58 27.3987 423.874 22.0111 419.422 17.6492C415.261 13.6262 411.942 10.4685 405.191 10.5848C398.378 10.7904 395.271 14.1625 391.311 18.391C387.106 22.9764 381.778 28.6234 371.453 28.9897C361.19 29.2668 355.484 23.8792 351.032 19.5172C346.871 15.4943 343.552 12.3366 336.801 12.4529L336.52 3.74642Z" fill="#04DA00"/>
<path d="M339.48 3.74642C329.218 3.46933 323.511 8.85704 319.06 13.219C314.898 17.2419 311.579 20.3996 304.828 20.2833C298.015 20.0778 294.908 16.7057 290.949 12.4771C286.743 7.89169 281.415 2.24464 271.09 1.87834C260.828 1.60125 255.121 6.989 250.669 11.3509C246.508 15.3739 243.189 18.5316 236.438 18.4152C229.625 18.2097 226.518 14.8376 222.558 10.609C218.353 6.02361 213.025 0.376563 202.7 0.0102651C192.438 -0.266823 186.731 5.12092 182.279 9.48284C178.118 13.5058 174.799 16.6635 168.048 16.5472L167.767 25.2536C178.029 25.5307 183.736 20.143 188.188 15.7811C192.349 11.7581 195.668 8.60044 202.419 8.71677C209.232 8.92231 212.339 12.2944 216.299 16.523C220.504 21.1084 225.832 26.7554 236.157 27.1217C246.42 27.3987 252.126 22.0111 256.578 17.6492C260.739 13.6262 264.058 10.4685 270.809 10.5848C277.622 10.7904 280.729 14.1625 284.689 18.391C288.894 22.9764 294.222 28.6234 304.547 28.9897C314.81 29.2668 320.516 23.8792 324.968 19.5172C329.129 15.4943 332.448 12.3366 339.199 12.4529L339.48 3.74642Z" fill="#04DA00"/>
<path d="M676 3.74642C665.796 3.46933 660.122 8.85704 655.696 13.219C651.559 17.2419 648.259 20.3996 641.547 20.2833C634.773 20.0778 631.683 16.7057 627.747 12.4771C623.566 7.89169 618.268 2.24464 608.003 1.87834C597.799 1.60125 592.125 6.989 587.699 11.3509C583.562 15.3739 580.262 18.5316 573.55 18.4152C566.776 18.2097 563.686 14.8376 559.75 10.609C555.569 6.02361 550.271 0.376563 540.006 0.0102651C529.802 -0.266823 524.128 5.12092 519.702 9.48284C515.565 13.5058 512.265 16.6635 505.553 16.5472L505.273 25.2536C515.477 25.5307 521.151 20.143 525.577 15.7811C529.714 11.7581 533.014 8.60044 539.726 8.71677C546.5 8.92231 549.59 12.2944 553.526 16.523C557.707 21.1084 563.005 26.7554 573.27 27.1217C583.474 27.3987 589.148 22.0111 593.574 17.6492C597.711 13.6262 601.011 10.4685 607.723 10.5848C614.497 10.7904 617.587 14.1625 621.523 18.391C625.704 22.9764 631.002 28.6234 641.267 28.9897C651.471 29.2668 657.145 23.8792 661.571 19.5172C665.708 15.4943 669.008 12.3366 675.72 12.4529L676 3.74642Z" fill="#04DA00"/>
</svg>
