<svg width="400" height="24" viewBox="0 0 400 24" fill="none" xmlns="http://www.w3.org/2000/svg">
<path d="M0 3.52537C8.03089 3.30649 12.4965 7.56246 15.9797 11.0081C19.2362 14.186 21.8332 16.6804 27.1161 16.5885C32.4472 16.4262 34.879 13.7624 37.9771 10.4221C41.2676 6.79989 45.4374 2.33905 53.5164 2.0497C61.5473 1.83081 66.013 6.08682 69.4962 9.53247C72.7527 12.7104 75.3496 15.2048 80.6325 15.1129C85.9636 14.9505 88.3954 12.2867 91.4935 8.94641C94.784 5.32422 98.9538 0.86338 107.033 0.574027C115.064 0.355143 119.529 4.61115 123.013 8.0568C126.269 11.2347 128.866 13.7291 134.149 13.6372L134.369 20.5147C126.338 20.7336 121.873 16.4777 118.389 13.032C115.133 9.85415 112.536 7.35976 107.253 7.45165C101.922 7.61402 99.4902 10.2778 96.392 13.6181C93.1015 17.2403 88.9317 21.7011 80.8527 21.9904C72.8218 22.2093 68.3562 17.9534 64.873 14.5077C61.6165 11.3298 59.0195 8.8354 53.7366 8.92729C48.4055 9.08966 45.9737 11.7534 42.8756 15.0938C39.5851 18.7159 35.4153 23.1767 27.3363 23.4661C19.3054 23.685 14.8398 19.429 11.3566 15.9834C8.10008 12.8055 5.50311 10.3111 0.220171 10.403L0 3.52537Z" fill="#04DA00"/>
<path d="M264.854 3.52537C272.931 3.30649 277.422 7.56246 280.926 11.0081C284.201 14.186 286.813 16.6804 292.126 16.5885C297.488 16.4262 299.934 13.7624 303.05 10.4221C306.36 6.79989 310.554 2.33905 318.679 2.0497C326.757 1.83081 331.248 6.08682 334.751 9.53247C338.027 12.7104 340.639 15.2048 345.952 15.1129C351.314 14.9505 353.76 12.2867 356.876 8.94641C360.185 5.32422 364.379 0.86338 372.505 0.574027C380.582 0.355143 385.074 4.61115 388.577 8.0568C391.852 11.2347 394.464 13.7291 399.778 13.6372L399.999 20.5147C391.922 20.7336 387.431 16.4777 383.927 13.032C380.652 9.85415 378.04 7.35976 372.726 7.45165C367.365 7.61402 364.919 10.2778 361.803 13.6181C358.493 17.2403 354.299 21.7011 346.174 21.9904C338.096 22.2093 333.605 17.9534 330.101 14.5077C326.826 11.3298 324.214 8.8354 318.901 8.92729C313.539 9.08966 311.093 11.7534 307.977 15.0938C304.667 18.7159 300.474 23.1767 292.348 23.4661C284.271 23.685 279.779 19.429 276.276 15.9834C273 12.8055 270.388 10.3111 265.075 10.403L264.854 3.52537Z" fill="#04DA00"/>
<path d="M267.184 3.52537C259.106 3.30649 254.615 7.56246 251.111 11.0081C247.836 14.186 245.224 16.6804 239.911 16.5885C234.549 16.4262 232.103 13.7624 228.987 10.4221C225.677 6.79989 221.484 2.33905 213.358 2.0497C205.281 1.83081 200.789 6.08682 197.286 9.53247C194.01 12.7104 191.398 15.2048 186.085 15.1129C180.723 14.9505 178.277 12.2867 175.161 8.94641C171.852 5.32422 167.658 0.86338 159.532 0.574027C151.455 0.355143 146.963 4.61115 143.46 8.0568C140.185 11.2347 137.573 13.7291 132.259 13.6372L132.038 20.5147C140.115 20.7336 144.607 16.4777 148.11 13.032C151.385 9.85415 153.997 7.35976 159.311 7.45165C164.672 7.61402 167.118 10.2778 170.234 13.6181C173.544 17.2403 177.738 21.7011 185.864 21.9904C193.941 22.2093 198.432 17.9534 201.936 14.5077C205.211 11.3298 207.823 8.8354 213.136 8.92729C218.498 9.08966 220.944 11.7534 224.06 15.0938C227.37 18.7159 231.564 23.1767 239.689 23.4661C247.767 23.685 252.258 19.429 255.761 15.9834C259.037 12.8055 261.649 10.3111 266.962 10.403L267.184 3.52537Z" fill="#04DA00"/>
</svg>
