<svg width="416" height="23" viewBox="0 0 416 23" fill="none" xmlns="http://www.w3.org/2000/svg">
<path d="M0 2.95945C8.35054 2.74057 12.9939 6.99654 16.6158 10.4422C20.0019 13.6201 22.7022 16.1145 28.1954 16.0226C33.7386 15.8603 36.2672 13.1965 39.4887 9.85616C42.9102 6.23397 47.2459 1.77313 55.6465 1.48378C63.997 1.2649 68.6404 5.5209 72.2623 8.96655C75.6484 12.1444 78.3487 14.6388 83.8419 14.5469C89.3851 14.3846 91.9137 11.7208 95.1352 8.38049C98.5566 4.7583 102.892 0.297462 111.293 0.00810886C119.643 -0.210775 124.287 4.04523 127.909 7.49088C131.295 10.6688 133.995 13.1632 139.488 13.0713L139.717 19.9488C131.367 20.1677 126.723 15.9118 123.102 12.4661C119.715 9.28824 117.015 6.79384 111.522 6.88574C105.979 7.0481 103.45 9.71188 100.229 13.0522C96.8072 16.6744 92.4714 21.1351 84.0709 21.4245C75.7203 21.6434 71.0769 17.3875 67.4551 13.9418C64.069 10.7639 61.3686 8.26948 55.8754 8.36138C50.3322 8.52374 47.8036 11.1875 44.5821 14.5278C41.1607 18.15 36.8249 22.6108 28.4244 22.9002C20.0739 23.1191 15.4304 18.8631 11.8086 15.4175C8.42249 12.2396 5.72215 9.74515 0.228934 9.83705L0 2.95945Z" fill="#04DA00"/>
<path d="M275.475 2.95945C283.873 2.74057 288.544 6.99654 292.186 10.4422C295.592 13.6201 298.308 16.1145 303.833 16.0226C309.408 15.8603 311.951 13.1965 315.192 9.85616C318.633 6.23397 322.994 1.77313 331.443 1.48378C339.842 1.2649 344.512 5.5209 348.155 8.96655C351.56 12.1444 354.276 14.6388 359.801 14.5469C365.376 14.3846 367.92 11.7208 371.16 8.38049C374.601 4.7583 378.962 0.297462 387.411 0.00810886C395.81 -0.210775 400.48 4.04523 404.123 7.49088C407.528 10.6688 410.244 13.1632 415.769 13.0713L415.999 19.9488C407.601 20.1677 402.93 15.9118 399.288 12.4661C395.882 9.28824 393.166 6.79384 387.641 6.88574C382.066 7.0481 379.523 9.71188 376.283 13.0522C372.841 16.6744 368.48 21.1351 360.031 21.4245C351.633 21.6434 346.962 17.3875 343.32 13.9418C339.914 10.7639 337.198 8.26948 331.673 8.36138C326.098 8.52374 323.554 11.1875 320.314 14.5278C316.873 18.15 312.512 22.6108 304.063 22.9002C295.664 23.1191 290.994 18.8631 287.351 15.4175C283.946 12.2396 281.23 9.74515 275.705 9.83705L275.475 2.95945Z" fill="#04DA00"/>
<path d="M277.734 2.95945C269.336 2.74057 264.665 6.99654 261.023 10.4422C257.617 13.6201 254.901 16.1145 249.376 16.0226C243.801 15.8603 241.258 13.1965 238.017 9.85616C234.576 6.23397 230.215 1.77313 221.766 1.48378C213.367 1.2649 208.697 5.5209 205.054 8.96655C201.649 12.1444 198.933 14.6388 193.408 14.5469C187.833 14.3846 185.289 11.7208 182.049 8.38049C178.608 4.7583 174.247 0.297462 165.798 0.00810886C157.399 -0.210775 152.729 4.04523 149.086 7.49088C145.681 10.6688 142.965 13.1632 137.44 13.0713L137.21 19.9488C145.608 20.1677 150.279 15.9118 153.921 12.4661C157.327 9.28824 160.043 6.79384 165.568 6.88574C171.143 7.0481 173.686 9.71188 176.926 13.0522C180.368 16.6744 184.729 21.1351 193.178 21.4245C201.576 21.6434 206.247 17.3875 209.889 13.9418C213.295 10.7639 216.011 8.26948 221.536 8.36138C227.111 8.52374 229.654 11.1875 232.895 14.5278C236.336 18.15 240.697 22.6108 249.146 22.9002C257.545 23.1191 262.215 18.8631 265.858 15.4175C269.263 12.2396 271.979 9.74515 277.504 9.83705L277.734 2.95945Z" fill="#04DA00"/>
</svg>
