<svg width="500" height="23" viewBox="0 0 500 23" fill="none" xmlns="http://www.w3.org/2000/svg">
<path d="M0 2.95945C7.54726 2.74057 11.744 6.99654 15.0174 10.4422C18.0778 13.6201 20.5184 16.1145 25.4832 16.0226C30.4932 15.8603 32.7785 13.1965 35.6901 9.85616C38.7824 6.23397 42.7011 1.77313 50.2936 1.48378C57.8408 1.2649 62.0376 5.5209 65.311 8.96655C68.3714 12.1444 70.812 14.6388 75.7767 14.5469C80.7867 14.3846 83.0721 11.7208 85.9837 8.38049C89.076 4.7583 92.9947 0.297462 100.587 0.00810886C108.134 -0.210775 112.331 4.04523 115.605 7.49088C118.665 10.6688 121.106 13.1632 126.07 13.0713L126.277 19.9488C118.73 20.1677 114.533 15.9118 111.26 12.4661C108.199 9.28824 105.759 6.79384 100.794 6.88574C95.7841 7.0481 93.4987 9.71188 90.5872 13.0522C87.4948 16.6744 83.5761 21.1351 75.9837 21.4245C68.4364 21.6434 64.2397 17.3875 60.9662 13.9418C57.9059 10.7639 55.4653 8.26948 50.5005 8.36138C45.4905 8.52374 43.2051 11.1875 40.2936 14.5278C37.2012 18.15 33.2826 22.6108 25.6901 22.9002C18.1429 23.1191 13.9461 18.8631 10.6727 15.4175C7.61229 12.2396 5.17171 9.74515 0.206912 9.83705L0 2.95945Z" fill="#04DA00"/>
<path d="M248.979 2.95945C256.569 2.74057 260.79 6.99654 264.083 10.4422C267.161 13.6201 269.615 16.1145 274.609 16.0226C279.648 15.8603 281.946 13.1965 284.875 9.85616C287.985 6.23397 291.926 1.77313 299.563 1.48378C307.154 1.2649 311.375 5.5209 314.667 8.96655C317.745 12.1444 320.2 14.6388 325.193 14.5469C330.232 14.3846 332.531 11.7208 335.459 8.38049C338.569 4.7583 342.511 0.297462 350.147 0.00810886C357.738 -0.210775 361.959 4.04523 365.251 7.49088C368.329 10.6688 370.784 13.1632 375.777 13.0713L375.986 19.9488C368.395 20.1677 364.174 15.9118 360.881 12.4661C357.803 9.28824 355.349 6.79384 350.355 6.88574C345.316 7.0481 343.018 9.71188 340.089 13.0522C336.979 16.6744 333.038 21.1351 325.401 21.4245C317.81 21.6434 313.589 17.3875 310.297 13.9418C307.219 10.7639 304.764 8.26948 299.771 8.36138C294.732 8.52374 292.433 11.1875 289.505 14.5278C286.395 18.15 282.453 22.6108 274.817 22.9002C267.226 23.1191 263.005 18.8631 259.713 15.4175C256.635 12.2396 254.18 9.74515 249.187 9.83705L248.979 2.95945Z" fill="#04DA00"/>
<path d="M251.021 2.95945C243.431 2.74057 239.21 6.99654 235.917 10.4422C232.839 13.6201 230.385 16.1145 225.391 16.0226C220.352 15.8603 218.054 13.1965 215.125 9.85616C212.015 6.23397 208.074 1.77313 200.437 1.48378C192.846 1.2649 188.625 5.5209 185.333 8.96655C182.255 12.1444 179.8 14.6388 174.807 14.5469C169.768 14.3846 167.469 11.7208 164.541 8.38049C161.431 4.7583 157.489 0.297462 149.853 0.00810886C142.262 -0.210775 138.041 4.04523 134.749 7.49088C131.671 10.6688 129.216 13.1632 124.223 13.0713L124.014 19.9488C131.605 20.1677 135.826 15.9118 139.119 12.4661C142.197 9.28824 144.651 6.79384 149.645 6.88574C154.684 7.0481 156.982 9.71188 159.911 13.0522C163.021 16.6744 166.962 21.1351 174.599 21.4245C182.19 21.6434 186.411 17.3875 189.703 13.9418C192.781 10.7639 195.236 8.26948 200.229 8.36138C205.268 8.52374 207.567 11.1875 210.495 14.5278C213.605 18.15 217.547 22.6108 225.183 22.9002C232.774 23.1191 236.995 18.8631 240.287 15.4175C243.365 12.2396 245.82 9.74515 250.813 9.83705L251.021 2.95945Z" fill="#04DA00"/>
<path d="M500 2.95945C492.453 2.74057 488.256 6.99654 484.983 10.4422C481.922 13.6201 479.482 16.1145 474.517 16.0226C469.507 15.8603 467.221 13.1965 464.31 9.85616C461.218 6.23397 457.299 1.77313 449.706 1.48378C442.159 1.2649 437.962 5.5209 434.689 8.96655C431.629 12.1444 429.188 14.6388 424.223 14.5469C419.213 14.3846 416.928 11.7208 414.016 8.38049C410.924 4.7583 407.005 0.297462 399.413 0.00810886C391.866 -0.210775 387.669 4.04523 384.395 7.49088C381.335 10.6688 378.894 13.1632 373.93 13.0713L373.723 19.9488C381.27 20.1677 385.467 15.9118 388.74 12.4661C391.801 9.28824 394.241 6.79384 399.206 6.88574C404.216 7.0481 406.501 9.71188 409.413 13.0522C412.505 16.6744 416.424 21.1351 424.016 21.4245C431.564 21.6434 435.76 17.3875 439.034 13.9418C442.094 10.7639 444.535 8.26948 449.5 8.36138C454.51 8.52374 456.795 11.1875 459.706 14.5278C462.799 18.15 466.717 22.6108 474.31 22.9002C481.857 23.1191 486.054 18.8631 489.327 15.4175C492.388 12.2396 494.828 9.74515 499.793 9.83705L500 2.95945Z" fill="#04DA00"/>
</svg>
