<svg width="18" height="20" viewBox="0 0 18 20" fill="none" xmlns="http://www.w3.org/2000/svg">
<path d="M16.5 1.75H14.25V1C14.25 0.801088 14.171 0.610322 14.0303 0.46967C13.8897 0.329018 13.6989 0.25 13.5 0.25C13.3011 0.25 13.1103 0.329018 12.9697 0.46967C12.829 0.610322 12.75 0.801088 12.75 1V1.75H5.25V1C5.25 0.801088 5.17098 0.610322 5.03033 0.46967C4.88968 0.329018 4.69891 0.25 4.5 0.25C4.30109 0.25 4.11032 0.329018 3.96967 0.46967C3.82902 0.610322 3.75 0.801088 3.75 1V1.75H1.5C1.10218 1.75 0.720644 1.90804 0.43934 2.18934C0.158035 2.47064 0 2.85218 0 3.25V18.25C0 18.6478 0.158035 19.0294 0.43934 19.3107C0.720644 19.592 1.10218 19.75 1.5 19.75H16.5C16.8978 19.75 17.2794 19.592 17.5607 19.3107C17.842 19.0294 18 18.6478 18 18.25V3.25C18 2.85218 17.842 2.47064 17.5607 2.18934C17.2794 1.90804 16.8978 1.75 16.5 1.75ZM4.875 16C4.6525 16 4.43499 15.934 4.24998 15.8104C4.06498 15.6868 3.92078 15.5111 3.83564 15.3055C3.75049 15.1 3.72821 14.8738 3.77162 14.6555C3.81502 14.4373 3.92217 14.2368 4.0795 14.0795C4.23684 13.9222 4.43729 13.815 4.65552 13.7716C4.87375 13.7282 5.09995 13.7505 5.30552 13.8356C5.51109 13.9208 5.68679 14.065 5.8104 14.25C5.93402 14.435 6 14.6525 6 14.875C6 15.1734 5.88147 15.4595 5.6705 15.6705C5.45952 15.8815 5.17337 16 4.875 16ZM9 16C8.7775 16 8.55999 15.934 8.37498 15.8104C8.18998 15.6868 8.04578 15.5111 7.96064 15.3055C7.87549 15.1 7.85321 14.8738 7.89662 14.6555C7.94002 14.4373 8.04717 14.2368 8.2045 14.0795C8.36184 13.9222 8.56229 13.815 8.78052 13.7716C8.99875 13.7282 9.22495 13.7505 9.43052 13.8356C9.63608 13.9208 9.81179 14.065 9.9354 14.25C10.059 14.435 10.125 14.6525 10.125 14.875C10.125 15.1734 10.0065 15.4595 9.79549 15.6705C9.58452 15.8815 9.29837 16 9 16ZM9 12.25C8.7775 12.25 8.55999 12.184 8.37498 12.0604C8.18998 11.9368 8.04578 11.7611 7.96064 11.5555C7.87549 11.35 7.85321 11.1238 7.89662 10.9055C7.94002 10.6873 8.04717 10.4868 8.2045 10.3295C8.36184 10.1722 8.56229 10.065 8.78052 10.0216C8.99875 9.97821 9.22495 10.0005 9.43052 10.0856C9.63608 10.1708 9.81179 10.315 9.9354 10.5C10.059 10.685 10.125 10.9025 10.125 11.125C10.125 11.4234 10.0065 11.7095 9.79549 11.9205C9.58452 12.1315 9.29837 12.25 9 12.25ZM13.125 16C12.9025 16 12.685 15.934 12.5 15.8104C12.315 15.6868 12.1708 15.5111 12.0856 15.3055C12.0005 15.1 11.9782 14.8738 12.0216 14.6555C12.065 14.4373 12.1722 14.2368 12.3295 14.0795C12.4868 13.9222 12.6873 13.815 12.9055 13.7716C13.1238 13.7282 13.35 13.7505 13.5555 13.8356C13.7611 13.9208 13.9368 14.065 14.0604 14.25C14.184 14.435 14.25 14.6525 14.25 14.875C14.25 15.1734 14.1315 15.4595 13.9205 15.6705C13.7095 15.8815 13.4234 16 13.125 16ZM13.125 12.25C12.9025 12.25 12.685 12.184 12.5 12.0604C12.315 11.9368 12.1708 11.7611 12.0856 11.5555C12.0005 11.35 11.9782 11.1238 12.0216 10.9055C12.065 10.6873 12.1722 10.4868 12.3295 10.3295C12.4868 10.1722 12.6873 10.065 12.9055 10.0216C13.1238 9.97821 13.35 10.0005 13.5555 10.0856C13.7611 10.1708 13.9368 10.315 14.0604 10.5C14.184 10.685 14.25 10.9025 14.25 11.125C14.25 11.4234 14.1315 11.7095 13.9205 11.9205C13.7095 12.1315 13.4234 12.25 13.125 12.25ZM16.5 6.25H1.5V3.25H3.75V4C3.75 4.19891 3.82902 4.38968 3.96967 4.53033C4.11032 4.67098 4.30109 4.75 4.5 4.75C4.69891 4.75 4.88968 4.67098 5.03033 4.53033C5.17098 4.38968 5.25 4.19891 5.25 4V3.25H12.75V4C12.75 4.19891 12.829 4.38968 12.9697 4.53033C13.1103 4.67098 13.3011 4.75 13.5 4.75C13.6989 4.75 13.8897 4.67098 14.0303 4.53033C14.171 4.38968 14.25 4.19891 14.25 4V3.25H16.5V6.25Z" fill="#181D14"/>
</svg>
