<svg width="20" height="20" viewBox="0 0 20 20" fill="none" xmlns="http://www.w3.org/2000/svg">
<path d="M9.75 0.25C7.82164 0.25 5.93657 0.821828 4.33319 1.89317C2.72982 2.96451 1.48013 4.48726 0.742179 6.26884C0.00422452 8.05042 -0.188858 10.0108 0.187348 11.9021C0.563554 13.7934 1.49215 15.5307 2.85571 16.8943C4.21928 18.2579 5.95656 19.1865 7.84787 19.5627C9.73919 19.9389 11.6996 19.7458 13.4812 19.0078C15.2627 18.2699 16.7855 17.0202 17.8568 15.4168C18.9282 13.8134 19.5 11.9284 19.5 10C19.4973 7.41498 18.4692 4.93661 16.6413 3.10872C14.8134 1.28084 12.335 0.25273 9.75 0.25ZM15 10.75H9.75C9.55109 10.75 9.36033 10.671 9.21967 10.5303C9.07902 10.3897 9 10.1989 9 10V4.75C9 4.55109 9.07902 4.36032 9.21967 4.21967C9.36033 4.07902 9.55109 4 9.75 4C9.94892 4 10.1397 4.07902 10.2803 4.21967C10.421 4.36032 10.5 4.55109 10.5 4.75V9.25H15C15.1989 9.25 15.3897 9.32902 15.5303 9.46967C15.671 9.61032 15.75 9.80109 15.75 10C15.75 10.1989 15.671 10.3897 15.5303 10.5303C15.3897 10.671 15.1989 10.75 15 10.75Z" fill="#181D14"/>
</svg>
