<svg width="650" height="23" viewBox="0 0 650 23" fill="none" xmlns="http://www.w3.org/2000/svg">
<path d="M0 2.95945C7.85877 2.74057 12.2287 6.99654 15.6372 10.4422C18.8239 13.6201 21.3652 16.1145 26.535 16.0226C31.7517 15.8603 34.1314 13.1965 37.1632 9.85616C40.3831 6.23397 44.4635 1.77313 52.3694 1.48378C60.2281 1.2649 64.5981 5.5209 68.0066 8.96655C71.1933 12.1444 73.7346 14.6388 78.9043 14.5469C84.1211 14.3846 86.5008 11.7208 89.5325 8.38049C92.7525 4.7583 96.8329 0.297462 104.739 0.00810886C112.597 -0.210775 116.967 4.04523 120.376 7.49088C123.563 10.6688 126.104 13.1632 131.274 13.0713L131.489 19.9488C123.63 20.1677 119.26 15.9118 115.852 12.4661C112.665 9.28824 110.124 6.79384 104.954 6.88574C99.7375 7.0481 97.3578 9.71188 94.326 13.0522C91.1061 16.6744 87.0256 21.1351 79.1198 21.4245C71.261 21.6434 66.8911 17.3875 63.4825 13.9418C60.2958 10.7639 57.7545 8.26948 52.5848 8.36138C47.368 8.52374 44.9884 11.1875 41.9566 14.5278C38.7367 18.15 34.6563 22.6108 26.7504 22.9002C18.8917 23.1191 14.5217 18.8631 11.1132 15.4175C7.92647 12.2396 5.38517 9.74515 0.215452 9.83705L0 2.95945Z" fill="#04DA00"/>
<path d="M259.256 2.95945C267.16 2.74057 271.555 6.99654 274.983 10.4422C278.189 13.6201 280.745 16.1145 285.944 16.0226C291.191 15.8603 293.585 13.1965 296.634 9.85616C299.872 6.23397 303.976 1.77313 311.928 1.48378C319.832 1.2649 324.227 5.5209 327.656 8.96655C330.861 12.1444 333.417 14.6388 338.616 14.5469C343.863 14.3846 346.257 11.7208 349.306 8.38049C352.544 4.7583 356.648 0.297462 364.6 0.00810886C372.504 -0.210775 376.899 4.04523 380.328 7.49088C383.533 10.6688 386.089 13.1632 391.288 13.0713L391.505 19.9488C383.601 20.1677 379.206 15.9118 375.777 12.4661C372.572 9.28824 370.016 6.79384 364.817 6.88574C359.57 7.0481 357.176 9.71188 354.127 13.0522C350.888 16.6744 346.784 21.1351 338.833 21.4245C330.929 21.6434 326.534 17.3875 323.105 13.9418C319.9 10.7639 317.344 8.26948 312.145 8.36138C306.898 8.52374 304.504 11.1875 301.455 14.5278C298.216 18.15 294.112 22.6108 286.161 22.9002C278.257 23.1191 273.862 18.8631 270.433 15.4175C267.228 12.2396 264.672 9.74515 259.473 9.83705L259.256 2.95945Z" fill="#04DA00"/>
<path d="M261.381 2.95945C253.477 2.74057 249.081 6.99654 245.653 10.4422C242.448 13.6201 239.892 16.1145 234.693 16.0226C229.446 15.8603 227.052 13.1965 224.003 9.85616C220.764 6.23397 216.66 1.77313 208.709 1.48378C200.805 1.2649 196.409 5.5209 192.981 8.96655C189.776 12.1444 187.22 14.6388 182.021 14.5469C176.774 14.3846 174.38 11.7208 171.331 8.38049C168.092 4.7583 163.988 0.297462 156.037 0.00810886C148.133 -0.210775 143.737 4.04523 140.309 7.49088C137.104 10.6688 134.548 13.1632 129.348 13.0713L129.132 19.9488C137.036 20.1677 141.431 15.9118 144.859 12.4661C148.064 9.28824 150.62 6.79384 155.82 6.88574C161.067 7.0481 163.46 9.71188 166.51 13.0522C169.748 16.6744 173.852 21.1351 181.804 21.4245C189.708 21.6434 194.103 17.3875 197.531 13.9418C200.737 10.7639 203.293 8.26948 208.492 8.36138C213.739 8.52374 216.132 11.1875 219.182 14.5278C222.42 18.15 226.524 22.6108 234.476 22.9002C242.38 23.1191 246.775 18.8631 250.203 15.4175C253.409 12.2396 255.965 9.74515 261.164 9.83705L261.381 2.95945Z" fill="#04DA00"/>
<path d="M520.637 2.95945C512.778 2.74057 508.408 6.99654 504.999 10.4422C501.813 13.6201 499.271 16.1145 494.102 16.0226C488.885 15.8603 486.505 13.1965 483.474 9.85616C480.254 6.23397 476.173 1.77313 468.267 1.48378C460.409 1.2649 456.039 5.5209 452.63 8.96655C449.443 12.1444 446.902 14.6388 441.732 14.5469C436.516 14.3846 434.136 11.7208 431.104 8.38049C427.884 4.7583 423.804 0.297462 415.898 0.00810886C408.039 -0.210775 403.669 4.04523 400.261 7.49088C397.074 10.6688 394.533 13.1632 389.363 13.0713L389.148 19.9488C397.006 20.1677 401.376 15.9118 404.785 12.4661C407.972 9.28824 410.513 6.79384 415.682 6.88574C420.899 7.0481 423.279 9.71188 426.311 13.0522C429.531 16.6744 433.611 21.1351 441.517 21.4245C449.376 21.6434 453.746 17.3875 457.154 13.9418C460.341 10.7639 462.882 8.26948 468.052 8.36138C473.269 8.52374 475.648 11.1875 478.68 14.5278C481.9 18.15 485.98 22.6108 493.886 22.9002C501.745 23.1191 506.115 18.8631 509.524 15.4175C512.71 12.2396 515.252 9.74515 520.421 9.83705L520.637 2.95945Z" fill="#04DA00"/>
<path d="M518.512 2.95945C526.37 2.74057 530.74 6.99654 534.149 10.4422C537.336 13.6201 539.877 16.1145 545.047 16.0226C550.263 15.8603 552.643 13.1965 555.675 9.85616C558.895 6.23397 562.975 1.77313 570.881 1.48378C578.74 1.2649 583.11 5.5209 586.518 8.96655C589.705 12.1444 592.246 14.6388 597.416 14.5469C602.633 14.3846 605.012 11.7208 608.044 8.38049C611.264 4.7583 615.345 0.297462 623.25 0.00810886C631.109 -0.210775 635.479 4.04523 638.888 7.49088C642.074 10.6688 644.616 13.1632 649.785 13.0713L650.001 19.9488C642.142 20.1677 637.772 15.9118 634.364 12.4661C631.177 9.28824 628.636 6.79384 623.466 6.88574C618.249 7.0481 615.869 9.71188 612.838 13.0522C609.618 16.6744 605.537 21.1351 597.632 21.4245C589.773 21.6434 585.403 17.3875 581.994 13.9418C578.808 10.7639 576.266 8.26948 571.097 8.36138C565.88 8.52374 563.5 11.1875 560.468 14.5278C557.248 18.15 553.168 22.6108 545.262 22.9002C537.403 23.1191 533.033 18.8631 529.625 15.4175C526.438 12.2396 523.897 9.74515 518.727 9.83705L518.512 2.95945Z" fill="#04DA00"/>
</svg>
