<svg width="30" height="30" viewBox="0 0 30 30" fill="none" xmlns="http://www.w3.org/2000/svg">
<rect width="30" height="30" rx="15" fill="url(#paint0_linear_1_5507)"/>
<path d="M23.4708 10.1386L12.8049 20.8045C12.743 20.8665 12.6695 20.9156 12.5886 20.9492C12.5077 20.9827 12.4209 21 12.3333 21C12.2457 21 12.159 20.9827 12.078 20.9492C11.9971 20.9156 11.9236 20.8665 11.8617 20.8045L7.19536 16.1382C7.07027 16.0131 7 15.8434 7 15.6665C7 15.4896 7.07027 15.32 7.19536 15.1949C7.32044 15.0698 7.49009 14.9996 7.66699 14.9996C7.84388 14.9996 8.01353 15.0698 8.13862 15.1949L12.3333 19.3904L22.5275 9.19536C22.6526 9.07027 22.8223 9 22.9992 9C23.1761 9 23.3457 9.07027 23.4708 9.19536C23.5959 9.32044 23.6662 9.49009 23.6662 9.66699C23.6662 9.84388 23.5959 10.0135 23.4708 10.1386Z" fill="#181D14" stroke="#181D14"/>
<defs>
<linearGradient id="paint0_linear_1_5507" x1="-3.93391e-07" y1="6" x2="30" y2="25.5" gradientUnits="userSpaceOnUse">
<stop stop-color="#04DA00" stop-opacity="0.2"/>
<stop offset="1" stop-color="#04DA00"/>
</linearGradient>
</defs>
</svg>
