<svg width="550" height="23" viewBox="0 0 550 23" fill="none" xmlns="http://www.w3.org/2000/svg">
<path d="M0 2.95945C6.65223 2.74057 10.3512 6.99654 13.2365 10.4422C15.934 13.6201 18.0851 16.1145 22.4611 16.0226C26.877 15.8603 28.8913 13.1965 31.4576 9.85616C34.1832 6.23397 37.6372 1.77313 44.3293 1.48378C50.9815 1.2649 54.6805 5.5209 57.5658 8.96655C60.2632 12.1444 62.4144 14.6388 66.7904 14.5469C71.2062 14.3846 73.2206 11.7208 75.7868 8.38049C78.5125 4.7583 81.9664 0.297462 88.6585 0.00810886C95.3107 -0.210775 99.0098 4.04523 101.895 7.49088C104.592 10.6688 106.744 13.1632 111.12 13.0713L111.302 19.9488C104.65 20.1677 100.951 15.9118 98.0655 12.4661C95.368 9.28824 93.2169 6.79384 88.8409 6.88574C84.4251 7.0481 82.4107 9.71188 79.8444 13.0522C77.1188 16.6744 73.6648 21.1351 66.9728 21.4245C60.3205 21.6434 56.6215 17.3875 53.7362 13.9418C51.0388 10.7639 48.8876 8.26948 44.5116 8.36138C40.0958 8.52374 38.0814 11.1875 35.5151 14.5278C32.7895 18.15 29.3356 22.6108 22.6435 22.9002C15.9913 23.1191 12.2922 18.8631 9.407 15.4175C6.70954 12.2396 4.5584 9.74515 0.182374 9.83705L0 2.95945Z" fill="#04DA00"/>
<path d="M219.486 2.95945C226.177 2.74057 229.897 6.99654 232.799 10.4422C235.512 13.6201 237.676 16.1145 242.077 16.0226C246.519 15.8603 248.545 13.1965 251.126 9.85616C253.867 6.23397 257.341 1.77313 264.072 1.48378C270.762 1.2649 274.483 5.5209 277.385 8.96655C280.098 12.1444 282.261 14.6388 286.663 14.5469C291.104 14.3846 293.13 11.7208 295.711 8.38049C298.453 4.7583 301.927 0.297462 308.657 0.00810886C315.348 -0.210775 319.068 4.04523 321.97 7.49088C324.683 10.6688 326.847 13.1632 331.248 13.0713L331.432 19.9488C324.741 20.1677 321.021 15.9118 318.119 12.4661C315.406 9.28824 313.242 6.79384 308.841 6.88574C304.399 7.0481 302.373 9.71188 299.792 13.0522C297.051 16.6744 293.577 21.1351 286.846 21.4245C280.156 21.6434 276.435 17.3875 273.533 13.9418C270.82 10.7639 268.657 8.26948 264.255 8.36138C259.814 8.52374 257.788 11.1875 255.207 14.5278C252.465 18.15 248.991 22.6108 242.261 22.9002C235.57 23.1191 231.85 18.8631 228.948 15.4175C226.235 12.2396 224.071 9.74515 219.67 9.83705L219.486 2.95945Z" fill="#04DA00"/>
<path d="M221.234 2.95945C214.544 2.74057 210.823 6.99654 207.921 10.4422C205.208 13.6201 203.045 16.1145 198.643 16.0226C194.202 15.8603 192.176 13.1965 189.595 9.85616C186.854 6.23397 183.38 1.77313 176.649 1.48378C169.958 1.2649 166.238 5.5209 163.336 8.96655C160.623 12.1444 158.459 14.6388 154.058 14.5469C149.617 14.3846 147.591 11.7208 145.009 8.38049C142.268 4.7583 138.794 0.297462 132.063 0.00810886C125.373 -0.210775 121.652 4.04523 118.75 7.49088C116.037 10.6688 113.874 13.1632 109.472 13.0713L109.289 19.9488C115.98 20.1677 119.7 15.9118 122.602 12.4661C125.315 9.28824 127.479 6.79384 131.88 6.88574C136.321 7.0481 138.347 9.71188 140.928 13.0522C143.67 16.6744 147.144 21.1351 153.874 21.4245C160.565 21.6434 164.286 17.3875 167.188 13.9418C169.901 10.7639 172.064 8.26948 176.465 8.36138C180.907 8.52374 182.933 11.1875 185.514 14.5278C188.255 18.15 191.729 22.6108 198.46 22.9002C205.151 23.1191 208.871 18.8631 211.773 15.4175C214.486 12.2396 216.65 9.74515 221.051 9.83705L221.234 2.95945Z" fill="#04DA00"/>
<path d="M440.713 2.95945C434.061 2.74057 430.362 6.99654 427.476 10.4422C424.779 13.6201 422.628 16.1145 418.252 16.0226C413.836 15.8603 411.822 13.1965 409.255 9.85616C406.53 6.23397 403.076 1.77313 396.384 1.48378C389.731 1.2649 386.032 5.5209 383.147 8.96655C380.45 12.1444 378.299 14.6388 373.923 14.5469C369.507 14.3846 367.492 11.7208 364.926 8.38049C362.2 4.7583 358.746 0.297462 352.054 0.00810886C345.402 -0.210775 341.703 4.04523 338.818 7.49088C336.12 10.6688 333.969 13.1632 329.593 13.0713L329.411 19.9488C336.063 20.1677 339.762 15.9118 342.647 12.4661C345.345 9.28824 347.496 6.79384 351.872 6.88574C356.288 7.0481 358.302 9.71188 360.868 13.0522C363.594 16.6744 367.048 21.1351 373.74 21.4245C380.392 21.6434 384.091 17.3875 386.977 13.9418C389.674 10.7639 391.825 8.26948 396.201 8.36138C400.617 8.52374 402.631 11.1875 405.198 14.5278C407.923 18.15 411.377 22.6108 418.069 22.9002C424.722 23.1191 428.421 18.8631 431.306 15.4175C434.003 12.2396 436.154 9.74515 440.531 9.83705L440.713 2.95945Z" fill="#04DA00"/>
<path d="M550 20.0405C543.348 20.2594 539.649 16.0035 536.763 12.5578C534.066 9.37991 531.915 6.88549 527.539 6.97738C523.123 7.13974 521.109 9.80353 518.542 13.1438C515.817 16.766 512.363 21.2269 505.671 21.5162C499.019 21.7351 495.319 17.4791 492.434 14.0334C489.737 10.8556 487.586 8.36116 483.21 8.45305C478.794 8.61541 476.779 11.2792 474.213 14.6195C471.488 18.2417 468.034 22.7025 461.341 22.9919C454.689 23.2108 450.99 18.9548 448.105 15.5091C445.408 12.3312 443.256 9.83683 438.88 9.92872L438.698 3.05117C445.35 2.83228 449.049 7.08821 451.934 10.5339C454.632 13.7118 456.783 16.2062 461.159 16.1143C465.575 15.9519 467.589 13.2881 470.156 9.94781C472.881 6.32561 476.335 1.86485 483.027 1.5755C489.679 1.35661 493.378 5.61254 496.264 9.0582C498.961 12.2361 501.112 14.7305 505.488 14.6386C509.904 14.4763 511.919 11.8125 514.485 8.47217C517.21 4.84997 520.664 0.389179 527.356 0.0998268C534.009 -0.119057 537.708 4.13687 540.593 7.58253C543.29 10.7604 545.442 13.2548 549.818 13.163L550 20.0405Z" fill="#04DA00"/>
</svg>
