<svg width="600" height="23" viewBox="0 0 600 23" fill="none" xmlns="http://www.w3.org/2000/svg">
<path d="M0 2.95945C7.25698 2.74057 11.2923 6.99654 14.4398 10.4422C17.3825 13.6201 19.7292 16.1145 24.503 16.0226C29.3203 15.8603 31.5178 13.1965 34.3174 9.85616C37.2908 6.23397 41.0588 1.77313 48.3592 1.48378C55.6162 1.2649 59.6515 5.5209 62.799 8.96655C65.7417 12.1444 68.0884 14.6388 72.8622 14.5469C77.6795 14.3846 79.877 11.7208 82.6766 8.38049C85.65 4.7583 89.4179 0.297462 96.7184 0.00810886C103.975 -0.210775 108.011 4.04523 111.158 7.49088C114.101 10.6688 116.448 13.1632 121.221 13.0713L121.42 19.9488C114.163 20.1677 110.128 15.9118 106.981 12.4661C104.038 9.28824 101.691 6.79384 96.9174 6.88574C92.1001 7.0481 89.9026 9.71188 87.103 13.0522C84.1296 16.6744 80.3616 21.1351 73.0612 21.4245C65.8042 21.6434 61.7689 17.3875 58.6214 13.9418C55.6787 10.7639 53.332 8.26948 48.5581 8.36138C43.7408 8.52374 41.5434 11.1875 38.7438 14.5278C35.7704 18.15 32.0025 22.6108 24.702 22.9002C17.445 23.1191 13.4097 18.8631 10.2622 15.4175C7.3195 12.2396 4.9728 9.74515 0.198954 9.83705L0 2.95945Z" fill="#04DA00"/>
<path d="M239.438 2.95945C246.736 2.74057 250.795 6.99654 253.961 10.4422C256.92 13.6201 259.281 16.1145 264.082 16.0226C268.927 15.8603 271.137 13.1965 273.953 9.85616C276.944 6.23397 280.734 1.77313 288.076 1.48378C295.375 1.2649 299.434 5.5209 302.6 8.96655C305.559 12.1444 307.919 14.6388 312.721 14.5469C317.566 14.3846 319.776 11.7208 322.592 8.38049C325.583 4.7583 329.372 0.297462 336.715 0.00810886C344.014 -0.210775 348.072 4.04523 351.238 7.49088C354.198 10.6688 356.558 13.1632 361.36 13.0713L361.56 19.9488C354.261 20.1677 350.202 15.9118 347.036 12.4661C344.077 9.28824 341.716 6.79384 336.915 6.88574C332.07 7.0481 329.86 9.71188 327.044 13.0522C324.053 16.6744 320.264 21.1351 312.921 21.4245C305.622 21.6434 301.563 17.3875 298.398 13.9418C295.438 10.7639 293.078 8.26948 288.276 8.36138C283.431 8.52374 281.221 11.1875 278.405 14.5278C275.415 18.15 271.625 22.6108 264.282 22.9002C256.983 23.1191 252.925 18.8631 249.759 15.4175C246.799 12.2396 244.439 9.74515 239.638 9.83705L239.438 2.95945Z" fill="#04DA00"/>
<path d="M241.344 2.95945C234.045 2.74057 229.986 6.99654 226.82 10.4422C223.861 13.6201 221.501 16.1145 216.699 16.0226C211.854 15.8603 209.644 13.1965 206.828 9.85616C203.837 6.23397 200.048 1.77313 192.705 1.48378C185.406 1.2649 181.347 5.5209 178.182 8.96655C175.222 12.1444 172.862 14.6388 168.06 14.5469C163.215 14.3846 161.005 11.7208 158.189 8.38049C155.199 4.7583 151.409 0.297462 144.066 0.00810886C136.767 -0.210775 132.709 4.04523 129.543 7.49088C126.583 10.6688 124.223 13.1632 119.422 13.0713L119.222 19.9488C126.52 20.1677 130.579 15.9118 133.745 12.4661C136.705 9.28824 139.065 6.79384 143.866 6.88574C148.711 7.0481 150.921 9.71188 153.737 13.0522C156.728 16.6744 160.518 21.1351 167.86 21.4245C175.159 21.6434 179.218 17.3875 182.384 13.9418C185.343 10.7639 187.704 8.26948 192.505 8.36138C197.35 8.52374 199.56 11.1875 202.376 14.5278C205.367 18.15 209.156 22.6108 216.499 22.9002C223.798 23.1191 227.857 18.8631 231.022 15.4175C233.982 12.2396 236.342 9.74515 241.144 9.83705L241.344 2.95945Z" fill="#04DA00"/>
<path d="M480.781 2.95945C473.524 2.74057 469.489 6.99654 466.341 10.4422C463.399 13.6201 461.052 16.1145 456.278 16.0226C451.461 15.8603 449.263 13.1965 446.464 9.85616C443.49 6.23397 439.722 1.77313 432.422 1.48378C425.165 1.2649 421.13 5.5209 417.982 8.96655C415.04 12.1444 412.693 14.6388 407.919 14.5469C403.102 14.3846 400.904 11.7208 398.105 8.38049C395.131 4.7583 391.363 0.297462 384.063 0.00810886C376.806 -0.210775 372.771 4.04523 369.623 7.49088C366.68 10.6688 364.334 13.1632 359.56 13.0713L359.361 19.9488C366.618 20.1677 370.653 15.9118 373.801 12.4661C376.743 9.28824 379.09 6.79384 383.864 6.88574C388.681 7.0481 390.879 9.71188 393.678 13.0522C396.652 16.6744 400.42 21.1351 407.72 21.4245C414.977 21.6434 419.012 17.3875 422.16 13.9418C425.103 10.7639 427.449 8.26948 432.223 8.36138C437.04 8.52374 439.238 11.1875 442.037 14.5278C445.011 18.15 448.779 22.6108 456.079 22.9002C463.336 23.1191 467.372 18.8631 470.519 15.4175C473.462 12.2396 475.808 9.74515 480.582 9.83705L480.781 2.95945Z" fill="#04DA00"/>
<path d="M600 20.0405C592.743 20.2594 588.708 16.0035 585.56 12.5578C582.618 9.37991 580.271 6.88549 575.497 6.97738C570.68 7.13974 568.482 9.80353 565.683 13.1438C562.709 16.766 558.941 21.2269 551.641 21.5162C544.384 21.7351 540.349 17.4791 537.201 14.0334C534.258 10.8556 531.912 8.36116 527.138 8.45305C522.32 8.61541 520.123 11.2792 517.323 14.6195C514.35 18.2417 510.582 22.7025 503.282 22.9919C496.025 23.2108 491.989 18.9548 488.842 15.5091C485.899 12.3312 483.552 9.83683 478.779 9.92872L478.58 3.05117C485.837 2.83228 489.872 7.08821 493.019 10.5339C495.962 13.7118 498.309 16.2062 503.083 16.1143C507.9 15.9519 510.097 13.2881 512.897 9.94781C515.87 6.32561 519.638 1.86485 526.939 1.5755C534.196 1.35661 538.231 5.61254 541.379 9.0582C544.321 12.2361 546.668 14.7305 551.442 14.6386C556.259 14.4763 558.457 11.8125 561.256 8.47217C564.23 4.84997 567.998 0.389179 575.298 0.0998268C582.555 -0.119057 586.59 4.13687 589.738 7.58253C592.68 10.7604 595.027 13.2548 599.801 13.163L600 20.0405Z" fill="#04DA00"/>
</svg>
