<svg width="60" height="60" viewBox="0 0 60 60" fill="none" xmlns="http://www.w3.org/2000/svg">
<rect width="60" height="60" rx="30" fill="url(#paint0_linear_1_5308)"/>
<path d="M33.0407 17.0892C33.0814 16.9369 33.1518 16.7941 33.2477 16.669C33.3436 16.544 33.4633 16.439 33.5998 16.3601C33.7363 16.2813 33.887 16.2301 34.0433 16.2095C34.1996 16.189 34.3584 16.1994 34.5107 16.2402C36.7353 16.8206 38.765 17.9836 40.3907 19.6093C42.0164 21.235 43.1794 23.2647 43.7598 25.4893C43.8006 25.6416 43.811 25.8004 43.7905 25.9567C43.7699 26.113 43.7187 26.2637 43.6399 26.4002C43.561 26.5367 43.4561 26.6564 43.331 26.7523C43.2059 26.8482 43.0631 26.9186 42.9108 26.9593C42.8094 26.9859 42.7051 26.9995 42.6003 26.9998C42.3358 26.9998 42.0788 26.9125 41.8691 26.7513C41.6595 26.5902 41.5089 26.3643 41.4408 26.1088C40.9674 24.2928 40.0183 22.6358 38.6912 21.3088C37.3642 19.9818 35.7072 19.0326 33.8912 18.5592C33.7388 18.5187 33.5958 18.4484 33.4706 18.3526C33.3453 18.2567 33.2402 18.1371 33.1612 18.0006C33.0822 17.864 33.0309 17.7133 33.0102 17.5569C32.9895 17.4005 32.9999 17.2416 33.0407 17.0892ZM32.6912 23.3593C34.7597 23.9113 36.0887 25.2403 36.6407 27.3088C36.7088 27.5643 36.8594 27.7902 37.0691 27.9513C37.2788 28.1125 37.5358 28.1998 37.8002 28.1998C37.905 28.1996 38.0094 28.1859 38.1107 28.1593C38.263 28.1186 38.4058 28.0482 38.5309 27.9523C38.656 27.8564 38.761 27.7367 38.8398 27.6002C38.9187 27.4637 38.9698 27.313 38.9904 27.1567C39.011 27.0004 39.0006 26.8416 38.9597 26.6893C38.1917 23.8153 36.1847 21.8083 33.3107 21.0403C33.0032 20.9581 32.6756 21.0015 32.4001 21.1608C32.1245 21.3202 31.9236 21.5825 31.8414 21.89C31.7593 22.1975 31.8027 22.5251 31.962 22.8006C32.1214 23.0762 32.3837 23.2771 32.6912 23.3593ZM44.9823 37.6619C44.7148 39.6945 43.7166 41.5602 42.1741 42.9106C40.6316 44.2609 38.6503 45.0037 36.6002 45C24.6901 45 15 35.3099 15 23.3998C14.9963 21.3497 15.7391 19.3684 17.0894 17.8259C18.4398 16.2834 20.3055 15.2852 22.3381 15.0177C22.8521 14.9549 23.3726 15.0601 23.8219 15.3175C24.2712 15.5748 24.6252 15.9706 24.8311 16.4457L27.9991 23.5183V23.5363C28.1568 23.9 28.2219 24.297 28.1886 24.692C28.1554 25.087 28.0248 25.4676 27.8086 25.7998C27.7816 25.8403 27.7531 25.8778 27.7231 25.9153L24.6001 29.6173C25.7236 31.9004 28.1116 34.2674 30.4247 35.3939L34.0757 32.2874C34.1116 32.2572 34.1491 32.2292 34.1882 32.2034C34.5201 31.982 34.902 31.8468 35.2994 31.8102C35.6967 31.7735 36.0969 31.8365 36.4637 31.9934L36.4832 32.0024L43.5498 35.1689C44.0257 35.3741 44.4225 35.7278 44.6807 36.1771C44.9389 36.6265 45.0447 37.1474 44.9823 37.6619ZM42.6003 37.3619C42.6003 37.3619 42.5898 37.3619 42.5838 37.3619L35.5337 34.2044L31.8812 37.3109C31.8457 37.3409 31.8087 37.369 31.7702 37.3949C31.4248 37.6253 31.0256 37.7622 30.6115 37.7922C30.1974 37.8221 29.7826 37.7442 29.4077 37.5659C26.5981 36.2084 23.7976 33.4289 22.4386 30.6493C22.2586 30.2771 22.1779 29.8647 22.2042 29.4521C22.2304 29.0395 22.3629 28.6407 22.5886 28.2943C22.614 28.2537 22.6426 28.215 22.6741 28.1788L25.8001 24.4723L22.6501 17.4222C22.6495 17.4162 22.6495 17.4102 22.6501 17.4042C21.1955 17.594 19.8599 18.3075 18.8935 19.4111C17.9271 20.5147 17.3961 21.9328 17.4 23.3998C17.4056 28.4903 19.4303 33.3707 23.0298 36.9702C26.6293 40.5697 31.5097 42.5944 36.6002 42.6C38.0663 42.605 39.484 42.0759 40.5882 41.1116C41.6925 40.1473 42.4078 38.8138 42.6003 37.3604V37.3619Z" fill="#181D14"/>
<defs>
<linearGradient id="paint0_linear_1_5308" x1="-7.86781e-07" y1="12" x2="60" y2="51" gradientUnits="userSpaceOnUse">
<stop stop-color="#04DA00" stop-opacity="0.2"/>
<stop offset="1" stop-color="#04DA00"/>
</linearGradient>
</defs>
</svg>
