<svg width="34" height="34" viewBox="0 0 34 34" fill="none" xmlns="http://www.w3.org/2000/svg">
<rect width="34" height="34" rx="17" fill="url(#paint0_linear_1_231)"/>
<path d="M19.5012 13.3078L10.9588 21.6977C10.8161 21.838 10.624 21.9167 10.4239 21.9167C10.2238 21.9167 10.0317 21.838 9.88904 21.6977L6.22798 18.1024C6.15655 18.0322 6.09965 17.9486 6.06054 17.8563C6.02143 17.7641 6.00087 17.6651 6.00003 17.5649C5.99919 17.4647 6.01808 17.3654 6.05564 17.2725C6.0932 17.1796 6.14868 17.0951 6.21892 17.0236C6.28916 16.9522 6.37278 16.8953 6.465 16.8562C6.55723 16.8171 6.65626 16.7965 6.75643 16.7957C6.85661 16.7949 6.95596 16.8138 7.04883 16.8513C7.1417 16.8889 7.22627 16.9443 7.2977 17.0146L10.4239 20.0845L18.4325 12.219C18.5769 12.0771 18.7717 11.9984 18.9741 12.0002C19.0743 12.0011 19.1734 12.0217 19.2656 12.0609C19.3579 12.1001 19.4415 12.157 19.5117 12.2285C19.582 12.3 19.6374 12.3846 19.675 12.4775C19.7125 12.5705 19.7314 12.6699 19.7305 12.7701C19.7296 12.8703 19.709 12.9694 19.6698 13.0616C19.6306 13.1539 19.5737 13.2375 19.5022 13.3078H19.5012ZM28.6634 12.2285C28.5932 12.157 28.5096 12.1 28.4174 12.0608C28.3251 12.0215 28.226 12.0009 28.1258 12C28.0256 11.9991 27.9261 12.018 27.8332 12.0556C27.7403 12.0932 27.6557 12.1487 27.5842 12.219L19.5756 20.0845L17.7804 18.3207C17.636 18.179 17.4412 18.1005 17.2389 18.1023C17.0366 18.1042 16.8433 18.1864 16.7016 18.3308C16.5599 18.4751 16.4813 18.6699 16.4832 18.8722C16.485 19.0745 16.5672 19.2678 16.7116 19.4095L19.0408 21.6977C19.1834 21.838 19.3755 21.9167 19.5756 21.9167C19.7757 21.9167 19.9678 21.838 20.1105 21.6977L28.653 13.3078C28.7246 13.2376 28.7816 13.154 28.8209 13.0618C28.8602 12.9696 28.8809 12.8705 28.8819 12.7703C28.8829 12.6701 28.8641 12.5706 28.8266 12.4777C28.7891 12.3847 28.7337 12.3 28.6634 12.2285Z" fill="#181D14" stroke="#181D14"/>
<defs>
<linearGradient id="paint0_linear_1_231" x1="-4.45843e-07" y1="6.8" x2="34" y2="28.9" gradientUnits="userSpaceOnUse">
<stop stop-color="#04DA00"/>
<stop offset="1" stop-color="#04DA00" stop-opacity="0.2"/>
</linearGradient>
</defs>
</svg>
