<svg width="60" height="60" viewBox="0 0 60 60" fill="none" xmlns="http://www.w3.org/2000/svg">
<rect width="60" height="60" rx="30" transform="matrix(-1 0 0 1 60 0)" fill="url(#paint0_linear_1_1102)"/>
<path d="M30.7561 29.9944C30.7561 30.3258 30.8877 30.6436 31.1221 30.8779C31.3564 31.1123 31.6742 31.2439 32.0056 31.2439H39.5028C39.8342 31.2439 40.152 31.1123 40.3864 30.8779C40.6207 30.6436 40.7523 30.3258 40.7523 29.9944C40.7523 29.663 40.6207 29.3452 40.3864 29.1108C40.152 28.8765 39.8342 28.7448 39.5028 28.7448H32.0056C31.6742 28.7448 31.3564 28.8765 31.1221 29.1108C30.8877 29.3452 30.7561 29.663 30.7561 29.9944ZM32.0056 23.7467H39.5028C39.8342 23.7467 40.152 23.8784 40.3864 24.1127C40.6207 24.347 40.7523 24.6649 40.7523 24.9963C40.7523 25.3276 40.6207 25.6455 40.3864 25.8798C40.152 26.1141 39.8342 26.2458 39.5028 26.2458H32.0056C31.6742 26.2458 31.3564 26.1141 31.1221 25.8798C30.8877 25.6455 30.7561 25.3276 30.7561 24.9963C30.7561 24.6649 30.8877 24.347 31.1221 24.1127C31.3564 23.8784 31.6742 23.7467 32.0056 23.7467ZM14.5122 33.9726V43.7392C14.5102 43.9595 14.5665 44.1764 14.6754 44.3679C14.7842 44.5595 14.9418 44.7188 15.1321 44.8298C15.3223 44.9408 15.5386 44.9995 15.7589 45C15.9792 45.0005 16.1957 44.9427 16.3865 44.8326L20.1351 42.6865L23.8837 44.8326C24.0744 44.9427 24.291 45.0005 24.5112 45C24.7315 44.9995 24.9478 44.9408 25.1381 44.8298C25.3284 44.7188 25.4859 44.5595 25.5948 44.3679C25.7037 44.1764 25.7599 43.9595 25.758 43.7392V39.9906H44.5009C45.1637 39.9906 45.7994 39.7273 46.268 39.2587C46.7367 38.79 47 38.1544 47 37.4916V17.4991C47 16.8363 46.7367 16.2006 46.268 15.732C45.7994 15.2633 45.1637 15 44.5009 15H17.0112C16.3485 15 15.7128 15.2633 15.2441 15.732C14.7755 16.2006 14.5122 16.8363 14.5122 17.4991V22.2676C13.7223 23.024 13.0937 23.9325 12.6643 24.9383C12.2348 25.9441 12.0135 27.0264 12.0135 28.1201C12.0135 29.2137 12.2348 30.2961 12.6643 31.3019C13.0937 32.3077 13.7223 33.2162 14.5122 33.9726ZM25.758 37.4916V33.9726C27.1196 32.6594 27.9802 30.912 28.1911 29.0321C28.4021 27.1522 27.9502 25.2576 26.9134 23.6752C25.8767 22.0929 24.3201 20.9221 22.5123 20.3648C20.7045 19.8076 18.7589 19.8989 17.0112 20.6229V17.4991H44.5009V37.4916H25.758ZM17.0112 35.6173C18.0008 36.0307 19.0626 36.2436 20.1351 36.2436C21.2075 36.2436 22.2693 36.0307 23.2589 35.6173V41.5869L20.7598 40.1562C20.571 40.0483 20.3573 39.9915 20.1398 39.9915C19.9223 39.9915 19.7085 40.0483 19.5197 40.1562L17.0206 41.5869L17.0112 35.6173ZM14.5122 28.1201C14.5122 27.008 14.842 25.9209 15.4598 24.9962C16.0777 24.0715 16.9558 23.3508 17.9833 22.9252C19.0107 22.4996 20.1413 22.3883 21.232 22.6052C22.3228 22.8222 23.3247 23.3577 24.1111 24.1441C24.8974 24.9305 25.433 25.9324 25.6499 27.0231C25.8669 28.1138 25.7555 29.2444 25.3299 30.2719C24.9044 31.2993 24.1837 32.1775 23.259 32.7953C22.3343 33.4132 21.2472 33.743 20.1351 33.743C19.3967 33.743 18.6655 33.5975 17.9833 33.315C17.3011 33.0324 16.6812 32.6182 16.1591 32.0961C15.637 31.5739 15.2228 30.9541 14.9402 30.2719C14.6576 29.5897 14.5122 28.8585 14.5122 28.1201Z" fill="#181D14"/>
<defs>
<linearGradient id="paint0_linear_1_1102" x1="-7.86781e-07" y1="12" x2="60" y2="51" gradientUnits="userSpaceOnUse">
<stop stop-color="#04DA00"/>
<stop offset="1" stop-color="#04DA00" stop-opacity="0.2"/>
</linearGradient>
</defs>
</svg>
