<svg width="60" height="60" viewBox="0 0 60 60" fill="none" xmlns="http://www.w3.org/2000/svg">
<rect width="60" height="60" rx="30" fill="url(#paint0_linear_1_316)"/>
<path d="M46.2896 47.0614C46.236 47.2299 46.1497 47.3863 46.0357 47.5215C45.9217 47.6567 45.7822 47.7681 45.6251 47.8494C45.468 47.9307 45.2964 47.9802 45.1202 47.9952C44.944 48.0101 44.7665 47.9902 44.598 47.9366L30.1951 43.3533L15.7923 47.9366C15.6238 47.9902 15.4463 48.0101 15.2701 47.9951C15.0939 47.9801 14.9223 47.9306 14.7652 47.8493C14.6082 47.768 14.4686 47.6566 14.3546 47.5214C14.2406 47.3862 14.1543 47.2299 14.1007 47.0614C14.0471 46.8928 14.0272 46.7154 14.0422 46.5391C14.0572 46.3629 14.1067 46.1914 14.188 46.0343C14.2693 45.8772 14.3807 45.7377 14.5159 45.6237C14.6511 45.5097 14.8074 45.4234 14.976 45.3698L25.7482 41.9412L14.976 38.5109C14.8028 38.4613 14.6413 38.3775 14.5011 38.2644C14.3609 38.1513 14.2448 38.0112 14.1597 37.8524C14.0746 37.6936 14.0222 37.5193 14.0057 37.3399C13.9891 37.1606 14.0088 36.9797 14.0634 36.808C14.118 36.6363 14.2066 36.4774 14.3237 36.3405C14.4409 36.2037 14.5844 36.0918 14.7456 36.0114C14.9068 35.931 15.0825 35.8837 15.2623 35.8724C15.4421 35.8612 15.6223 35.8861 15.7923 35.9457L30.1951 40.5273L44.598 35.9457C44.768 35.8861 44.9482 35.8612 45.128 35.8724C45.3078 35.8837 45.4835 35.931 45.6447 36.0114C45.8059 36.0918 45.9494 36.2037 46.0665 36.3405C46.1837 36.4774 46.2722 36.6363 46.3269 36.808C46.3815 36.9797 46.4011 37.1606 46.3846 37.3399C46.3681 37.5193 46.3157 37.6936 46.2306 37.8524C46.1455 38.0112 46.0294 38.1513 45.8892 38.2644C45.749 38.3775 45.5875 38.4613 45.4143 38.5109L34.6421 41.9412L45.4143 45.3698C45.5829 45.4233 45.7392 45.5096 45.8744 45.6236C46.0096 45.7376 46.1211 45.8772 46.2024 46.0343C46.2836 46.1913 46.3332 46.3629 46.3481 46.5391C46.3631 46.7154 46.3432 46.8928 46.2896 47.0614ZM20.0962 27.1293C20.0962 23.7462 21.7406 20.2502 24.8494 17.0303C26.2443 15.5798 27.8014 14.2944 29.4899 13.1995C29.702 13.069 29.9461 13 30.1951 13C30.4441 13 30.6883 13.069 30.9004 13.1995C31.2841 13.4267 40.2941 19.0636 40.2941 27.1293C40.2941 29.8077 39.2301 32.3765 37.3362 34.2704C35.4423 36.1643 32.8736 37.2283 30.1951 37.2283C27.5167 37.2283 24.948 36.1643 23.0541 34.2704C21.1602 32.3765 20.0962 29.8077 20.0962 27.1293ZM30.1951 34.5352C30.9094 34.5352 31.5944 34.2515 32.0994 33.7465C32.6045 33.2414 32.8882 32.5564 32.8882 31.8422C32.8882 29.5581 31.205 27.7252 30.1951 26.828C29.1852 27.7252 27.5021 29.5581 27.5021 31.8422C27.5021 32.5564 27.7858 33.2414 28.2909 33.7465C28.7959 34.2515 29.4809 34.5352 30.1951 34.5352ZM22.7892 27.1293C22.7886 29.0243 23.5173 30.8469 24.8242 32.2192C24.8242 32.0947 24.809 31.9684 24.809 31.8422C24.809 27.1293 29.2593 24.1148 29.4478 23.9885C29.6691 23.8409 29.9291 23.7621 30.1951 23.7621C30.4611 23.7621 30.7212 23.8409 30.9425 23.9885C31.131 24.1148 35.5813 27.1293 35.5813 31.8422C35.5813 31.9684 35.5813 32.0947 35.5661 32.2192C36.873 30.8469 37.6016 29.0243 37.6011 27.1293C37.6011 21.7432 32.1712 17.367 30.1951 15.9632C28.2208 17.367 22.7892 21.7432 22.7892 27.1293Z" fill="#181D14"/>
<defs>
<linearGradient id="paint0_linear_1_316" x1="-7.86781e-07" y1="12" x2="60" y2="51" gradientUnits="userSpaceOnUse">
<stop stop-color="#04DA00"/>
<stop offset="1" stop-color="#04DA00" stop-opacity="0.2"/>
</linearGradient>
</defs>
</svg>
