<svg width="60" height="60" viewBox="0 0 60 60" fill="none" xmlns="http://www.w3.org/2000/svg">
<rect width="60" height="60" rx="30" fill="url(#paint0_linear_1_354)"/>
<path d="M39.3949 31.2602L31.6148 28.3852L28.7489 20.5991C28.5792 20.138 28.2721 19.7401 27.8692 19.4591C27.4662 19.178 26.9867 19.0273 26.4954 19.0273C26.0041 19.0273 25.5246 19.178 25.1217 19.4591C24.7187 19.7401 24.4116 20.138 24.2419 20.5991L21.3579 28.3852L13.5718 31.2511C13.1107 31.4208 12.7128 31.7279 12.4318 32.1308C12.1507 32.5338 12 33.0133 12 33.5046C12 33.9959 12.1507 34.4754 12.4318 34.8783C12.7128 35.2813 13.1107 35.5884 13.5718 35.7581L21.3579 38.6421L24.2238 46.4282C24.3935 46.8893 24.7006 47.2872 25.1036 47.5682C25.5065 47.8493 25.986 48 26.4773 48C26.9686 48 27.4481 47.8493 27.8511 47.5682C28.254 47.2872 28.5611 46.8893 28.7308 46.4282L31.6148 38.6421L39.4009 35.7762C39.862 35.6065 40.2599 35.2994 40.5409 34.8964C40.822 34.4935 40.9727 34.014 40.9727 33.5227C40.9727 33.0314 40.822 32.5519 40.5409 32.1489C40.2599 31.746 39.862 31.4389 39.4009 31.2692L39.3949 31.2602ZM30.2572 36.5635C30.0935 36.6239 29.9447 36.7191 29.8213 36.8425C29.6978 36.966 29.6026 37.1147 29.5423 37.2785L26.4864 45.5579L23.4365 37.2845C23.3762 37.119 23.2804 36.9687 23.1559 36.8441C23.0313 36.7196 22.881 36.6238 22.7155 36.5635L14.4421 33.5136L22.7155 30.4637C22.881 30.4035 23.0313 30.3077 23.1559 30.1831C23.2804 30.0586 23.3762 29.9083 23.4365 29.7428L26.4864 21.4694L29.5362 29.7428C29.5966 29.9065 29.6918 30.0553 29.8152 30.1787C29.9387 30.3022 30.0874 30.3974 30.2512 30.4577L38.5306 33.5136L30.2572 36.5635ZM31.3131 17.8267C31.3131 17.5067 31.4402 17.1998 31.6665 16.9735C31.8928 16.7472 32.1997 16.6201 32.5198 16.6201H34.9331V14.2067C34.9331 13.8867 35.0603 13.5797 35.2866 13.3534C35.5129 13.1271 35.8198 13 36.1398 13C36.4599 13 36.7668 13.1271 36.9931 13.3534C37.2194 13.5797 37.3465 13.8867 37.3465 14.2067V16.6201H39.7599C40.0799 16.6201 40.3868 16.7472 40.6131 16.9735C40.8394 17.1998 40.9666 17.5067 40.9666 17.8267C40.9666 18.1468 40.8394 18.4537 40.6131 18.68C40.3868 18.9063 40.0799 19.0334 39.7599 19.0334H37.3465V21.4468C37.3465 21.7668 37.2194 22.0738 36.9931 22.3001C36.7668 22.5263 36.4599 22.6535 36.1398 22.6535C35.8198 22.6535 35.5129 22.5263 35.2866 22.3001C35.0603 22.0738 34.9331 21.7668 34.9331 21.4468V19.0334H32.5198C32.1997 19.0334 31.8928 18.9063 31.6665 18.68C31.4402 18.4537 31.3131 18.1468 31.3131 17.8267ZM47 25.0669C47 25.3869 46.8729 25.6938 46.6466 25.9201C46.4203 26.1464 46.1133 26.2735 45.7933 26.2735H44.5866V27.4802C44.5866 27.8003 44.4595 28.1072 44.2332 28.3335C44.0069 28.5598 43.7 28.6869 43.3799 28.6869C43.0599 28.6869 42.753 28.5598 42.5267 28.3335C42.3004 28.1072 42.1733 27.8003 42.1733 27.4802V26.2735H40.9666C40.6465 26.2735 40.3396 26.1464 40.1133 25.9201C39.887 25.6938 39.7599 25.3869 39.7599 25.0669C39.7599 24.7468 39.887 24.4399 40.1133 24.2136C40.3396 23.9873 40.6465 23.8602 40.9666 23.8602H42.1733V22.6535C42.1733 22.3334 42.3004 22.0265 42.5267 21.8002C42.753 21.5739 43.0599 21.4468 43.3799 21.4468C43.7 21.4468 44.0069 21.5739 44.2332 21.8002C44.4595 22.0265 44.5866 22.3334 44.5866 22.6535V23.8602H45.7933C46.1133 23.8602 46.4203 23.9873 46.6466 24.2136C46.8729 24.4399 47 24.7468 47 25.0669Z" fill="#181D14"/>
<defs>
<linearGradient id="paint0_linear_1_354" x1="-7.86781e-07" y1="12" x2="60" y2="51" gradientUnits="userSpaceOnUse">
<stop stop-color="#04DA00"/>
<stop offset="1" stop-color="#04DA00" stop-opacity="0.2"/>
</linearGradient>
</defs>
</svg>
