<svg width="60" height="60" viewBox="0 0 60 60" fill="none" xmlns="http://www.w3.org/2000/svg">
<rect width="60" height="60" rx="30" fill="url(#paint0_linear_1_335)"/>
<path d="M44.1732 45.5861H37.9786L37.0282 38.9299L37.517 39.2181C37.7902 39.379 38.0924 39.4846 38.4064 39.5287C38.7204 39.5728 39.04 39.5546 39.3469 39.4752C39.6539 39.3957 39.9422 39.2566 40.1953 39.0657C40.4485 38.8748 40.6616 38.6359 40.8224 38.3627L42.6328 35.2941C42.7938 35.0209 42.8993 34.7187 42.9434 34.4047C42.9875 34.0907 42.9693 33.7711 42.8899 33.4641C42.8105 33.1572 42.6713 32.8689 42.4804 32.6157C42.2896 32.3625 42.0507 32.1494 41.7774 31.9886L36.4971 28.8793L42.6358 18.4499C42.7968 18.1767 42.9023 17.8745 42.9464 17.5605C42.9905 17.2465 42.9723 16.9269 42.8929 16.62C42.8135 16.313 42.6743 16.0247 42.4835 15.7715C42.2926 15.5184 42.0537 15.3053 41.7804 15.1444L38.7118 13.334C38.4386 13.1731 38.1364 13.0676 37.8224 13.0235C37.5084 12.9794 37.1888 12.9975 36.8819 13.077C36.5749 13.1564 36.2866 13.2956 36.0334 13.4864C35.7803 13.6773 35.5672 13.9162 35.4064 14.1895L32.297 19.4698L21.8631 13.334C21.5899 13.1731 21.2877 13.0676 20.9737 13.0235C20.6597 12.9794 20.3401 12.9975 20.0332 13.077C19.7262 13.1564 19.4379 13.2956 19.1847 13.4864C18.9316 13.6773 18.7185 13.9162 18.5577 14.1895L16.7473 17.2566C16.5861 17.5298 16.4804 17.8322 16.4361 18.1463C16.3919 18.4604 16.41 18.7802 16.4895 19.0874C16.5689 19.3945 16.7081 19.683 16.8991 19.9363C17.0902 20.1896 17.3292 20.4027 17.6027 20.5635L22.883 23.6729L16.7473 34.1022C16.5863 34.3754 16.4808 34.6777 16.4367 34.9916C16.3926 35.3056 16.4108 35.6252 16.4902 35.9322C16.5696 36.2391 16.7088 36.5274 16.8997 36.7806C17.0905 37.0338 17.3294 37.2469 17.6027 37.4077L20.6713 39.2181C21.1505 39.5053 21.7164 39.6123 22.2674 39.5198L21.4015 45.5861H15.2069C14.8868 45.5861 14.5798 45.7133 14.3535 45.9396C14.1272 46.166 14 46.473 14 46.7931C14 47.1132 14.1272 47.4202 14.3535 47.6465C14.5798 47.8728 14.8868 48 15.2069 48H44.1732C44.4933 48 44.8002 47.8728 45.0266 47.6465C45.2529 47.4202 45.3801 47.1132 45.3801 46.7931C45.3801 46.473 45.2529 46.166 45.0266 45.9396C44.8002 45.7133 44.4933 45.5861 44.1732 45.5861ZM40.5524 34.069L38.742 37.1377L28.3126 30.9989L30.123 27.9288L40.5524 34.069ZM37.4838 15.413L40.5524 17.2234L34.4137 27.6542L31.3496 25.8484L37.4838 15.413ZM18.8277 18.4831L20.6381 15.413L31.069 21.5532L29.2586 24.6233L18.8277 18.4831ZM21.8963 37.1377L18.8277 35.3273L24.9664 24.8964L28.0381 26.7068L21.8963 37.1377ZM23.8395 45.5861L25.1641 36.3532L27.0906 33.0794L34.3669 37.364L35.5421 45.5861H23.8395Z" fill="#181D14"/>
<defs>
<linearGradient id="paint0_linear_1_335" x1="-7.86781e-07" y1="12" x2="60" y2="51" gradientUnits="userSpaceOnUse">
<stop stop-color="#04DA00" stop-opacity="0.2"/>
<stop offset="1" stop-color="#04DA00"/>
</linearGradient>
</defs>
</svg>
