<svg width="60" height="60" viewBox="0 0 60 60" fill="none" xmlns="http://www.w3.org/2000/svg">
<rect width="60" height="60" rx="30" transform="matrix(-1 0 0 1 60 0)" fill="url(#paint0_linear_1_1086)"/>
<path d="M16.9999 25.2046C16.9986 22.9807 17.5594 20.7925 18.6301 18.8432C19.7008 16.894 21.2468 15.2469 23.1244 14.0551C25.002 12.8632 27.1504 12.1652 29.37 12.0259C31.5896 11.8866 33.8084 12.3105 35.8203 13.2582C37.8323 14.2059 39.5721 15.6467 40.8781 17.4467C42.1842 19.2468 43.0142 21.3477 43.2909 23.5544C43.5677 25.761 43.2824 28.0019 42.4613 30.0687C41.6403 32.1356 40.3103 33.9614 38.5947 35.3767V46.7994C38.5949 47.004 38.5427 47.2053 38.4431 47.384C38.3436 47.5628 38.2 47.7131 38.0259 47.8207C37.8519 47.9283 37.6533 47.9896 37.4489 47.9988C37.2445 48.008 37.0411 47.9647 36.8581 47.8732L30.1967 44.55L23.5338 47.8807C23.3668 47.9606 23.1836 48.0011 22.9985 47.9991C22.6803 47.9991 22.3751 47.8727 22.1502 47.6478C21.9252 47.4228 21.7988 47.1176 21.7988 46.7994V35.3767C20.2977 34.1404 19.089 32.5872 18.2593 30.8285C17.4296 29.0698 16.9995 27.1492 16.9999 25.2046ZM40.9941 25.2046C40.9941 23.0691 40.3609 20.9816 39.1744 19.2059C37.988 17.4303 36.3017 16.0464 34.3287 15.2292C32.3558 14.4119 30.1848 14.1981 28.0903 14.6147C25.9958 15.0313 24.0719 16.0597 22.5618 17.5697C21.0518 19.0798 20.0234 21.0037 19.6068 23.0982C19.1902 25.1927 19.404 27.3637 20.2212 29.3366C21.0385 31.3096 22.4224 32.9959 24.198 34.1824C25.9737 35.3688 28.0612 36.002 30.1967 36.002C33.0594 35.9989 35.8039 34.8603 37.8281 32.8361C39.8524 30.8118 40.991 28.0673 40.9941 25.2046ZM24.1982 44.8589L29.6614 42.1281C29.828 42.0447 30.0119 42.0012 30.1982 42.0012C30.3846 42.0012 30.5684 42.0447 30.7351 42.1281L36.1953 44.8589V36.9573C34.3382 37.9065 32.2824 38.4014 30.1967 38.4014C28.1111 38.4014 26.0553 37.9065 24.1982 36.9573V44.8589ZM30.1967 33.6026C28.5358 33.6026 26.9121 33.1101 25.5311 32.1873C24.15 31.2645 23.0736 29.9529 22.438 28.4184C21.8024 26.8839 21.6361 25.1953 21.9601 23.5663C22.2842 21.9372 23.084 20.4409 24.2585 19.2664C25.433 18.0919 26.9293 17.2921 28.5584 16.968C30.1874 16.644 31.876 16.8103 33.4105 17.4459C34.945 18.0816 36.2566 19.1579 37.1794 20.539C38.1022 21.92 38.5947 23.5437 38.5947 25.2046C38.5923 27.4312 37.7068 29.5659 36.1324 31.1403C34.558 32.7147 32.4233 33.6002 30.1967 33.6026ZM30.1967 19.2061C29.0103 19.2061 27.8506 19.5579 26.8641 20.217C25.8777 20.8762 25.1088 21.813 24.6548 22.9091C24.2008 24.0052 24.082 25.2113 24.3134 26.3749C24.5449 27.5385 25.1162 28.6074 25.9551 29.4463C26.794 30.2852 27.8629 30.8565 29.0265 31.0879C30.1901 31.3194 31.3962 31.2006 32.4923 30.7466C33.5884 30.2926 34.5252 29.5237 35.1844 28.5373C35.8435 27.5508 36.1953 26.391 36.1953 25.2046C36.1953 23.6137 35.5633 22.088 34.4384 20.963C33.3134 19.8381 31.7877 19.2061 30.1967 19.2061Z" fill="#181D14"/>
<defs>
<linearGradient id="paint0_linear_1_1086" x1="-7.86781e-07" y1="12" x2="60" y2="51" gradientUnits="userSpaceOnUse">
<stop stop-color="#04DA00"/>
<stop offset="1" stop-color="#04DA00" stop-opacity="0.2"/>
</linearGradient>
</defs>
</svg>
