<svg width="60" height="60" viewBox="0 0 60 60" fill="none" xmlns="http://www.w3.org/2000/svg">
<rect width="60" height="60" rx="30" fill="url(#paint0_linear_1_1078)"/>
<path d="M46 18.75H42.25V16.25C42.25 15.9185 42.1183 15.6005 41.8839 15.3661C41.6495 15.1317 41.3315 15 41 15H18.5C18.1685 15 17.8505 15.1317 17.6161 15.3661C17.3817 15.6005 17.25 15.9185 17.25 16.25V18.75H13.5C12.837 18.75 12.2011 19.0134 11.7322 19.4822C11.2634 19.9511 11 20.587 11 21.25V23.75C11 25.4076 11.6585 26.9973 12.8306 28.1694C13.4109 28.7498 14.0999 29.2102 14.8582 29.5242C15.6165 29.8383 16.4292 30 17.25 30H17.8203C18.5566 32.3335 19.9606 34.4 21.8586 35.9443C23.7566 37.4885 26.0655 38.4428 28.5 38.6891V42.5H24.75C24.4185 42.5 24.1005 42.6317 23.8661 42.8661C23.6317 43.1005 23.5 43.4185 23.5 43.75C23.5 44.0815 23.6317 44.3995 23.8661 44.6339C24.1005 44.8683 24.4185 45 24.75 45H34.75C35.0815 45 35.3995 44.8683 35.6339 44.6339C35.8683 44.3995 36 44.0815 36 43.75C36 43.4185 35.8683 43.1005 35.6339 42.8661C35.3995 42.6317 35.0815 42.5 34.75 42.5H31V38.6844C35.9906 38.1797 40.1313 34.6781 41.6375 30H42.25C43.9076 30 45.4973 29.3415 46.6694 28.1694C47.8415 26.9973 48.5 25.4076 48.5 23.75V21.25C48.5 20.587 48.2366 19.9511 47.7678 19.4822C47.2989 19.0134 46.663 18.75 46 18.75ZM17.25 27.5C16.2554 27.5 15.3016 27.1049 14.5983 26.4017C13.8951 25.6984 13.5 24.7446 13.5 23.75V21.25H17.25V26.25C17.25 26.6667 17.2703 27.0833 17.3109 27.5H17.25ZM39.75 26.1094C39.75 31.6594 35.2188 36.2094 29.75 36.25C27.0978 36.25 24.5543 35.1964 22.6789 33.3211C20.8036 31.4457 19.75 28.9022 19.75 26.25V17.5H39.75V26.1094ZM46 23.75C46 24.7446 45.6049 25.6984 44.9016 26.4017C44.1984 27.1049 43.2446 27.5 42.25 27.5H42.1719C42.2232 27.0382 42.2493 26.574 42.25 26.1094V21.25H46V23.75Z" fill="#181D14"/>
<defs>
<linearGradient id="paint0_linear_1_1078" x1="-7.86781e-07" y1="12" x2="60" y2="51" gradientUnits="userSpaceOnUse">
<stop stop-color="#04DA00"/>
<stop offset="1" stop-color="#04DA00" stop-opacity="0.2"/>
</linearGradient>
</defs>
</svg>
