<svg width="60" height="60" viewBox="0 0 60 60" fill="none" xmlns="http://www.w3.org/2000/svg">
<rect width="60" height="60" rx="30" fill="url(#paint0_linear_1_1094)"/>
<path d="M42.2477 15H18.5498C17.8735 15 17.225 15.2686 16.7468 15.7468C16.2686 16.225 16 16.8735 16 17.5498V24.9306C16.0006 25.4206 16.1424 25.9 16.4084 26.3115C16.6744 26.723 17.0534 27.0492 17.4999 27.2509L26.889 31.5181C25.4988 32.296 24.4059 33.5131 23.7815 34.9787C23.157 36.4444 23.0363 38.0757 23.4383 39.6173C23.8403 41.1588 24.7423 42.5235 26.0029 43.4975C27.2635 44.4716 28.8116 45 30.4047 45C31.9978 45 33.5459 44.4716 34.8066 43.4975C36.0672 42.5235 36.9692 41.1588 37.3711 39.6173C37.7731 38.0757 37.6525 36.4444 37.028 34.9787C36.4036 33.5131 35.3107 32.296 33.9204 31.5181L43.2976 27.2509C43.7441 27.0492 44.1231 26.723 44.3891 26.3115C44.655 25.9 44.7968 25.4206 44.7975 24.9306V17.5498C44.7975 16.8735 44.5288 16.225 44.0507 15.7468C43.5725 15.2686 42.9239 15 42.2477 15ZM35.1983 17.3998V28.2993L30.3987 30.4801L25.5992 28.2993V17.3998H35.1983ZM18.3998 24.9306V17.5498C18.3998 17.51 18.4156 17.4718 18.4437 17.4437C18.4718 17.4156 18.51 17.3998 18.5498 17.3998H23.1994V27.2074L18.4883 25.0671C18.462 25.0553 18.4396 25.0361 18.4239 25.0119C18.4082 24.9877 18.3998 24.9595 18.3998 24.9306ZM30.3987 42.5976C29.4495 42.5976 28.5215 42.3161 27.7322 41.7887C26.9429 41.2613 26.3278 40.5117 25.9645 39.6347C25.6012 38.7577 25.5062 37.7927 25.6914 36.8616C25.8766 35.9306 26.3337 35.0754 27.0049 34.4042C27.6762 33.733 28.5314 33.2758 29.4624 33.0906C30.3934 32.9054 31.3584 33.0005 32.2355 33.3638C33.1125 33.727 33.8621 34.3422 34.3894 35.1315C34.9168 35.9208 35.1983 36.8487 35.1983 37.798C35.1983 39.0709 34.6926 40.2917 33.7926 41.1918C32.8925 42.0919 31.6717 42.5976 30.3987 42.5976ZM42.3977 24.9306C42.3976 24.9595 42.3892 24.9877 42.3736 25.0119C42.3579 25.0361 42.3355 25.0553 42.3092 25.0671L37.5981 27.2074V17.3998H42.2477C42.2875 17.3998 42.3256 17.4156 42.3538 17.4437C42.3819 17.4718 42.3977 17.51 42.3977 17.5498V24.9306Z" fill="#181D14"/>
<defs>
<linearGradient id="paint0_linear_1_1094" x1="-7.86781e-07" y1="12" x2="60" y2="51" gradientUnits="userSpaceOnUse">
<stop stop-color="#04DA00"/>
<stop offset="1" stop-color="#04DA00" stop-opacity="0.2"/>
</linearGradient>
</defs>
</svg>
