<svg width="17" height="22" viewBox="0 0 17 22" fill="none" xmlns="http://www.w3.org/2000/svg">
<path d="M8.25 0.500107C6.06273 0.502588 3.96575 1.37258 2.41911 2.91922C0.872472 4.46585 0.00248131 6.56283 0 8.75011C0 15.8095 7.5 21.141 7.81969 21.3642C7.94579 21.4525 8.09603 21.4999 8.25 21.4999C8.40397 21.4999 8.55421 21.4525 8.68031 21.3642C9 21.141 16.5 15.8095 16.5 8.75011C16.4975 6.56283 15.6275 4.46585 14.0809 2.91922C12.5343 1.37258 10.4373 0.502588 8.25 0.500107ZM8.25 5.75011C8.84334 5.75011 9.42336 5.92605 9.91671 6.2557C10.4101 6.58534 10.7946 7.05388 11.0216 7.60206C11.2487 8.15023 11.3081 8.75344 11.1924 9.33538C11.0766 9.91732 10.7909 10.4519 10.3713 10.8714C9.95176 11.291 9.41721 11.5767 8.83527 11.6925C8.25333 11.8082 7.65013 11.7488 7.10195 11.5217C6.55377 11.2947 6.08524 10.9102 5.75559 10.4168C5.42595 9.92347 5.25 9.34345 5.25 8.75011C5.25 7.95446 5.56607 7.1914 6.12868 6.62879C6.69129 6.06618 7.45435 5.75011 8.25 5.75011Z" fill="#181D14"/>
</svg>
