<svg width="60" height="60" viewBox="0 0 60 60" fill="none" xmlns="http://www.w3.org/2000/svg">
<rect width="60" height="60" rx="30" fill="url(#paint0_linear_1_5301)"/>
<path d="M27.5556 23.3704C27.5556 22.8576 27.7076 22.3564 27.9925 21.93C28.2774 21.5037 28.6823 21.1714 29.156 20.9751C29.6297 20.7789 30.151 20.7276 30.6539 20.8276C31.1569 20.9276 31.6188 21.1746 31.9814 21.5371C32.344 21.8997 32.5909 22.3617 32.6909 22.8646C32.791 23.3675 32.7396 23.8888 32.5434 24.3625C32.3472 24.8362 32.0149 25.2412 31.5885 25.526C31.1622 25.8109 30.6609 25.963 30.1481 25.963C29.4605 25.963 28.8011 25.6898 28.3149 25.2036C27.8287 24.7174 27.5556 24.058 27.5556 23.3704ZM19.7778 23.3704C19.7778 20.62 20.8704 17.9822 22.8152 16.0374C24.76 14.0926 27.3978 13 30.1481 13C32.8985 13 35.5363 14.0926 37.4811 16.0374C39.4259 17.9822 40.5185 20.62 40.5185 23.3704C40.5185 33.0845 31.1884 38.5273 30.7963 38.7558C30.6004 38.8678 30.3787 38.9267 30.153 38.9267C29.9274 38.9267 29.7056 38.8678 29.5097 38.7558C29.1079 38.5273 19.7778 33.0926 19.7778 23.3704ZM22.3704 23.3704C22.3704 30.2083 28.1778 34.747 30.1481 36.0903C32.1169 34.7486 37.9259 30.2083 37.9259 23.3704C37.9259 21.3076 37.1065 19.3293 35.6479 17.8707C34.1893 16.412 32.2109 15.5926 30.1481 15.5926C28.0854 15.5926 26.107 16.412 24.6484 17.8707C23.1898 19.3293 22.3704 21.3076 22.3704 23.3704ZM42.2637 34.3289C41.9446 34.2235 41.5971 34.2461 41.2944 34.392C40.9917 34.5378 40.7574 34.7955 40.641 35.1107C40.5246 35.4259 40.5351 35.774 40.6704 36.0816C40.8056 36.3892 41.055 36.6322 41.366 36.7595C44.0412 37.7495 45.7037 39.075 45.7037 40.2222C45.7037 42.387 39.7861 45.4074 30.1481 45.4074C20.5102 45.4074 14.5926 42.387 14.5926 40.2222C14.5926 39.075 16.2551 37.7495 18.9303 36.7611C19.2413 36.6338 19.4907 36.3908 19.6259 36.0832C19.7612 35.7756 19.7717 35.4275 19.6553 35.1123C19.5389 34.7971 19.3046 34.5394 19.0019 34.3936C18.6992 34.2478 18.3517 34.2252 18.0326 34.3306C14.1421 35.7646 12 37.8581 12 40.2222C12 45.2745 21.3512 48 30.1481 48C38.9451 48 48.2963 45.2745 48.2963 40.2222C48.2963 37.8581 46.1542 35.7646 42.2637 34.3289Z" fill="#181D14"/>
<defs>
<linearGradient id="paint0_linear_1_5301" x1="-7.86781e-07" y1="12" x2="60" y2="51" gradientUnits="userSpaceOnUse">
<stop stop-color="#04DA00" stop-opacity="0.2"/>
<stop offset="1" stop-color="#04DA00"/>
</linearGradient>
</defs>
</svg>
