<svg width="60" height="60" viewBox="0 0 60 60" fill="none" xmlns="http://www.w3.org/2000/svg">
<rect width="60" height="60" rx="30" fill="url(#paint0_linear_1_5294)"/>
<path d="M42.8 22.2H38V17.4C38 16.7635 37.7471 16.153 37.2971 15.7029C36.847 15.2529 36.2365 15 35.6 15H16.4C15.7635 15 15.153 15.2529 14.7029 15.7029C14.2529 16.153 14 16.7635 14 17.4V36.6C14.0007 36.8258 14.0651 37.0467 14.1857 37.2376C14.3064 37.4284 14.4784 37.5813 14.6821 37.6787C14.8857 37.7762 15.1127 37.8142 15.337 37.7884C15.5613 37.7626 15.7738 37.6741 15.95 37.533L21.2 33.3V37.8C21.2 38.4365 21.4529 39.047 21.9029 39.4971C22.353 39.9471 22.9635 40.2 23.6 40.2H37.6385L43.25 44.733C43.4623 44.9048 43.7269 44.9989 44 45C44.3183 45 44.6235 44.8736 44.8485 44.6485C45.0736 44.4235 45.2 44.1183 45.2 43.8V24.6C45.2 23.9635 44.9471 23.353 44.4971 22.9029C44.047 22.4529 43.4365 22.2 42.8 22.2ZM20.3825 30.867L16.4 34.0875V17.4H35.6V30.6H21.137C20.8624 30.6 20.596 30.6943 20.3825 30.867ZM42.8 41.2875L38.8175 38.067C38.6052 37.8953 38.3406 37.8011 38.0675 37.8H23.6V33H35.6C36.2365 33 36.847 32.7471 37.2971 32.2971C37.7471 31.847 38 31.2365 38 30.6V24.6H42.8V41.2875Z" fill="#181D14"/>
<defs>
<linearGradient id="paint0_linear_1_5294" x1="-7.86781e-07" y1="12" x2="60" y2="51" gradientUnits="userSpaceOnUse">
<stop stop-color="#04DA00" stop-opacity="0.2"/>
<stop offset="1" stop-color="#04DA00"/>
</linearGradient>
</defs>
</svg>
