<svg width="490" height="23" viewBox="0 0 490 23" fill="none" xmlns="http://www.w3.org/2000/svg">
<path d="M0 2.95945C7.39633 2.74057 11.5091 6.99654 14.7171 10.4422C17.7163 13.6201 20.108 16.1145 24.9736 16.0226C29.8834 15.8603 32.123 13.1965 34.9764 9.85616C38.0068 6.23397 41.8472 1.77313 49.2878 1.48378C56.6841 1.2649 60.7969 5.5209 64.0049 8.96655C67.0041 12.1444 69.3958 14.6388 74.2613 14.5469C79.1711 14.3846 81.4108 11.7208 84.2641 8.38049C87.2946 4.7583 91.1349 0.297462 98.5756 0.00810886C105.972 -0.210775 110.085 4.04523 113.293 7.49088C116.292 10.6688 118.684 13.1632 123.549 13.0713L123.752 19.9488C116.356 20.1677 112.243 15.9118 109.035 12.4661C106.036 9.28824 103.644 6.79384 98.7784 6.88574C93.8686 7.0481 91.6289 9.71188 88.7756 13.0522C85.7451 16.6744 81.9048 21.1351 74.4641 21.4245C67.0678 21.6434 62.955 17.3875 59.747 13.9418C56.7478 10.7639 54.3561 8.26948 49.4906 8.36138C44.5808 8.52374 42.3411 11.1875 39.4878 14.5278C36.4573 18.15 32.617 22.6108 25.1764 22.9002C17.78 23.1191 13.6672 18.8631 10.4592 15.4175C7.46005 12.2396 5.06828 9.74515 0.202774 9.83705L0 2.95945Z" fill="#04DA00"/>
<path d="M243.924 2.95945C251.363 2.74057 255.499 6.99654 258.726 10.4422C261.743 13.6201 264.148 16.1145 269.042 16.0226C273.98 15.8603 276.232 13.1965 279.102 9.85616C282.15 6.23397 286.013 1.77313 293.496 1.48378C300.936 1.2649 305.072 5.5209 308.299 8.96655C311.315 12.1444 313.721 14.6388 318.614 14.5469C323.553 14.3846 325.805 11.7208 328.675 8.38049C331.723 4.7583 335.586 0.297462 343.069 0.00810886C350.508 -0.210775 354.645 4.04523 357.871 7.49088C360.888 10.6688 363.293 13.1632 368.187 13.0713L368.391 19.9488C360.952 20.1677 356.815 15.9118 353.589 12.4661C350.572 9.28824 348.167 6.79384 343.273 6.88574C338.335 7.0481 336.082 9.71188 333.213 13.0522C330.164 16.6744 326.302 21.1351 318.818 21.4245C311.379 21.6434 307.243 17.3875 304.016 13.9418C301 10.7639 298.594 8.26948 293.7 8.36138C288.762 8.52374 286.51 11.1875 283.64 14.5278C280.592 18.15 276.729 22.6108 269.246 22.9002C261.807 23.1191 257.67 18.8631 254.444 15.4175C251.427 12.2396 249.021 9.74515 244.128 9.83705L243.924 2.95945Z" fill="#04DA00"/>
<path d="M246.076 2.95945C238.637 2.74057 234.501 6.99654 231.274 10.4422C228.257 13.6201 225.852 16.1145 220.958 16.0226C216.02 15.8603 213.768 13.1965 210.898 9.85616C207.85 6.23397 203.987 1.77313 196.504 1.48378C189.064 1.2649 184.928 5.5209 181.701 8.96655C178.685 12.1444 176.279 14.6388 171.386 14.5469C166.447 14.3846 164.195 11.7208 161.325 8.38049C158.277 4.7583 154.414 0.297462 146.931 0.00810886C139.492 -0.210775 135.355 4.04523 132.129 7.49088C129.112 10.6688 126.707 13.1632 121.813 13.0713L121.609 19.9488C129.048 20.1677 133.185 15.9118 136.411 12.4661C139.428 9.28824 141.833 6.79384 146.727 6.88574C151.665 7.0481 153.918 9.71188 156.787 13.0522C159.836 16.6744 163.698 21.1351 171.182 21.4245C178.621 21.6434 182.757 17.3875 185.984 13.9418C189 10.7639 191.406 8.26948 196.3 8.36138C201.238 8.52374 203.49 11.1875 206.36 14.5278C209.408 18.15 213.271 22.6108 220.754 22.9002C228.193 23.1191 232.33 18.8631 235.556 15.4175C238.573 12.2396 240.979 9.74515 245.872 9.83705L246.076 2.95945Z" fill="#04DA00"/>
<path d="M490 2.95945C482.604 2.74057 478.491 6.99654 475.283 10.4422C472.284 13.6201 469.892 16.1145 465.026 16.0226C460.117 15.8603 457.877 13.1965 455.024 9.85616C451.993 6.23397 448.153 1.77313 440.712 1.48378C433.316 1.2649 429.203 5.5209 425.995 8.96655C422.996 12.1444 420.604 14.6388 415.739 14.5469C410.829 14.3846 408.589 11.7208 405.736 8.38049C402.705 4.7583 398.865 0.297462 391.424 0.00810886C384.028 -0.210775 379.915 4.04523 376.707 7.49088C373.708 10.6688 371.316 13.1632 366.451 13.0713L366.248 19.9488C373.644 20.1677 377.757 15.9118 380.965 12.4661C383.964 9.28824 386.356 6.79384 391.222 6.88574C396.131 7.0481 398.371 9.71188 401.224 13.0522C404.255 16.6744 408.095 21.1351 415.536 21.4245C422.932 21.6434 427.045 17.3875 430.253 13.9418C433.252 10.7639 435.644 8.26948 440.509 8.36138C445.419 8.52374 447.659 11.1875 450.512 14.5278C453.543 18.15 457.383 22.6108 464.824 22.9002C472.22 23.1191 476.333 18.8631 479.541 15.4175C482.54 12.2396 484.932 9.74515 489.797 9.83705L490 2.95945Z" fill="#04DA00"/>
</svg>
