<svg width="34" height="40" viewBox="0 0 34 40" fill="none" xmlns="http://www.w3.org/2000/svg">
<path d="M33.8445 20C33.8458 20.5223 33.7119 21.0361 33.4558 21.4914C33.1997 21.9466 32.8301 22.3278 32.3831 22.598L4.6767 39.5471C4.20958 39.8332 3.67457 39.9893 3.12692 39.9995C2.57928 40.0096 2.03885 39.8734 1.56146 39.6048C1.08862 39.3405 0.694729 38.9549 0.420295 38.4878C0.145861 38.0207 0.000790073 37.489 0 36.9473V3.05274C0.000790073 2.511 0.145861 1.97926 0.420295 1.51218C0.694729 1.0451 1.08862 0.659548 1.56146 0.395172C2.03885 0.126624 2.57928 -0.00961402 3.12692 0.000527564C3.67457 0.0106691 4.20958 0.166823 4.6767 0.452861L32.3831 17.402C32.8301 17.6722 33.1997 18.0534 33.4558 18.5086C33.7119 18.9639 33.8458 19.4777 33.8445 20Z" fill="#F3EEE3"/>
</svg>
