<svg width="250" height="250" viewBox="0 0 250 250" fill="none" xmlns="http://www.w3.org/2000/svg">
<path d="M244.242 113.404C251.919 119.247 251.919 130.753 244.242 136.596L239.951 139.862C234.205 144.235 232.521 152.124 235.982 158.445L238.567 163.165C243.193 171.61 238.49 182.122 229.088 184.352L223.834 185.599C216.797 187.268 212.034 193.793 212.613 200.968L213.045 206.327C213.819 215.914 205.227 223.613 195.726 221.845L190.417 220.857C183.306 219.534 176.288 223.567 173.884 230.356L172.089 235.426C168.877 244.498 157.881 248.054 149.925 242.593L145.478 239.541C139.523 235.455 131.463 236.298 126.492 241.527L122.78 245.432C116.138 252.42 104.64 251.217 99.6028 243.008L96.7878 238.42C93.018 232.276 85.3107 229.784 78.632 232.55L73.6448 234.615C64.7212 238.31 54.7082 232.557 53.462 223.018L52.7654 217.688C51.8327 210.549 45.8102 205.153 38.5788 204.976L33.1786 204.843C23.5164 204.607 16.7204 195.298 19.4802 186.08L21.0227 180.929C23.0882 174.03 19.7921 166.662 13.2581 163.573L8.37881 161.267C-0.35144 157.14 -2.75531 145.885 3.53342 138.581L7.04814 134.499C11.7548 129.032 11.7548 120.968 7.04814 115.501L3.53342 111.419C-2.75531 104.115 -0.351456 92.8603 8.37881 88.7333L13.2581 86.4268C19.792 83.338 23.0882 75.9704 21.0227 69.0714L19.4803 63.9196C16.7204 54.7016 23.5164 45.3929 33.1786 45.1565L38.5788 45.0243C45.8102 44.8474 51.8327 39.4509 52.7654 32.3123L53.462 26.9815C54.7082 17.4434 64.7212 11.6903 73.6447 15.3853L78.632 17.4504C85.3107 20.2158 93.018 17.7237 96.7878 11.5798L99.6028 6.99178C104.64 -1.21731 116.138 -2.42003 122.78 4.5675L126.492 8.47277C131.463 13.7024 139.523 14.5454 145.478 10.4586L149.925 7.40671C157.881 1.94612 168.877 5.5017 172.089 14.5736L173.884 19.6438C176.288 26.4334 183.306 30.4658 190.417 29.1427L195.726 28.1546C205.227 26.3867 213.819 34.0858 213.045 43.6734L212.613 49.0318C212.034 56.2074 216.797 62.732 223.834 64.4013L229.088 65.6479C238.49 67.8784 243.193 78.3897 238.567 86.8353L235.982 91.5554C232.521 97.8763 234.205 105.765 239.951 110.138L244.242 113.404Z" fill="url(#paint0_linear_1_1186)"/>
<path d="M123.062 210.708H127.82V204H130.368V222.798H123.062C119.37 222.798 117.004 220.38 117.004 216.766C117.004 213.256 119.396 210.708 123.062 210.708ZM123.504 220.51H127.82V212.996H123.608C121.086 212.996 119.682 214.478 119.682 216.792C119.682 219.158 121.112 220.51 123.504 220.51Z" fill="#F3EEE3"/>
<path d="M104.134 201.183L106.507 201.768L101.928 220.348L99.5549 219.763L104.134 201.183Z" fill="#F3EEE3"/>
<path d="M89.8119 195.318C92.2292 196.586 92.9436 198.694 91.8683 200.743C90.7808 202.815 88.5617 203.294 85.8054 202.112L82.1151 200.527L81.9459 200.85C80.9551 202.738 81.7328 203.997 83.2523 204.795C85.071 205.749 86.5299 205.487 87.2427 204.129L89.1305 205.12C87.8981 207.468 85.1547 207.995 82.254 206.473C79.4683 205.011 78.3538 202.547 79.9487 199.508L83.6582 192.44L85.4999 193.407L84.7756 195.346C86.0278 194.359 87.9931 194.363 89.8119 195.318ZM88.3082 196.672C86.2593 195.597 84.3153 196.279 83.2037 198.397L82.8895 198.996L85.8881 200.276C87.8956 201.095 89.065 200.769 89.6449 199.664C90.2732 198.467 89.7126 197.409 88.3082 196.672Z" fill="#F3EEE3"/>
<path d="M80.5513 183.42L79.2237 184.918L77.9977 183.832C77.1219 183.056 76.3006 182.572 74.7841 183.382L73.6429 184.003L68.5975 197.423L66.6709 195.716L70.7004 185.6L61.0855 190.767L59.1977 189.095L74.0208 181.42C76.1113 180.355 77.6683 180.518 79.1279 181.811C79.7312 182.346 80.1682 182.872 80.5513 183.42Z" fill="#F3EEE3"/>
<path d="M51.7191 154.144L41.6475 163.442L40.7256 161.011L46.3758 155.893C47.3374 155.055 48.205 154.337 48.8606 153.866C48.0089 153.966 46.8403 153.965 45.6382 153.948L37.9965 153.815L37.093 151.432L50.8616 151.883L51.7191 154.144Z" fill="#F3EEE3"/>
<path d="M31.065 135.993C31.1715 136.87 30.5366 137.681 29.659 137.787C28.7557 137.897 27.971 137.259 27.8645 136.381C27.7579 135.504 28.3671 134.696 29.2704 134.587C30.148 134.48 30.9584 135.115 31.065 135.993ZM46.8245 135.284L34.2032 136.816L33.9086 134.39L46.5299 132.858L46.8245 135.284Z" fill="#F3EEE3"/>
<path d="M46.9577 116.21C46.5126 119.875 43.5072 121.762 39.6615 121.295C35.7899 120.825 33.2234 118.235 33.6778 114.492C33.9129 112.557 34.962 111.034 36.6141 110.37L28.1999 109.349L28.4914 106.948L47.4878 109.255L47.2246 111.423L44.9024 111.35C46.5314 112.386 47.2021 114.196 46.9577 116.21ZM44.8233 115.453C45.1242 112.975 43.4765 111.23 40.8439 110.91C38.2628 110.597 36.2196 111.894 35.9187 114.372C35.6179 116.849 37.3007 118.52 39.8817 118.834C42.4886 119.15 44.5225 117.931 44.8233 115.453Z" fill="#F3EEE3"/>
<path d="M51.8598 96.3636C50.5322 99.8643 47.0911 101.312 43.3959 99.9108C39.6765 98.5002 37.9939 95.1648 39.3031 91.7127C40.5846 88.3336 43.7574 87.0064 47.2824 88.3433L48.1333 88.666L44.6725 97.8645C47.241 98.644 49.1246 97.8567 49.982 95.5959C50.6551 93.8212 50.3683 92.3777 49.1544 91.4724L49.9658 89.3331C52.2971 90.8846 52.9754 93.4221 51.8598 96.3636ZM41.2236 92.4411C40.4676 94.4345 41.1794 96.1504 43.1594 97.235L45.7594 90.3795C43.7902 89.6327 41.9888 90.4233 41.2236 92.4411Z" fill="#F3EEE3"/>
<path d="M51.0883 82.0222C47.8573 79.792 47.1843 75.9154 49.3554 72.77C51.5118 69.646 55.3751 68.9006 58.6061 71.1308C61.8371 73.3611 62.5101 77.2376 60.3538 80.3616C58.1826 83.5071 54.3194 84.2524 51.0883 82.0222ZM52.4914 79.9894C54.674 81.4959 57.1533 81.1537 58.5564 79.121C59.9447 77.1096 59.4003 74.6487 57.2177 73.1422C55.0352 71.6357 52.5412 71.9993 51.1528 74.0107C49.7497 76.0434 50.3089 78.4829 52.4914 79.9894Z" fill="#F3EEE3"/>
<path d="M88.2437 55.5068C87.3458 55.978 86.1994 55.6401 85.7403 54.7652C85.2691 53.8674 85.6421 52.7319 86.54 52.2607C87.4148 51.8016 88.5612 52.1395 89.0324 53.0374C89.4916 53.9122 89.1185 55.0476 88.2437 55.5068Z" fill="#F3EEE3"/>
<path d="M127.251 39.292H122.493V46H119.945V27.202H127.251C130.943 27.202 133.309 29.62 133.309 33.234C133.309 36.744 130.917 39.292 127.251 39.292ZM126.809 29.49H122.493V37.004H126.705C129.227 37.004 130.631 35.522 130.631 33.208C130.631 30.842 129.201 29.49 126.809 29.49Z" fill="#F3EEE3"/>
<path d="M146.178 48.8172L143.805 48.2323L148.385 29.6524L150.758 30.2373L146.178 48.8172Z" fill="#F3EEE3"/>
<path d="M160.502 54.6825C158.084 53.4138 157.37 51.3063 158.445 49.2574C159.533 47.1854 161.752 46.7058 164.508 47.8881L168.198 49.4726L168.368 49.1503C169.358 47.2625 168.581 46.0028 167.061 45.2053C165.242 44.2508 163.784 44.5128 163.071 45.8711L161.183 44.8803C162.415 42.5321 165.159 42.0046 168.06 43.527C170.845 44.989 171.96 47.4532 170.365 50.4921L166.655 57.5598L164.814 56.5932L165.538 54.6536C164.286 55.6408 162.32 55.637 160.502 54.6825ZM162.005 53.3281C164.054 54.4035 165.998 53.7207 167.11 51.6027L167.424 51.0041L164.425 49.724C162.418 48.9053 161.249 49.2311 160.669 50.3362C160.04 51.5333 160.601 52.591 162.005 53.3281Z" fill="#F3EEE3"/>
<path d="M169.761 66.5802L171.089 65.0817L172.315 66.1679C173.191 66.9437 174.012 67.4282 175.528 66.6181L176.67 65.9965L181.715 52.5775L183.642 54.2843L179.612 64.4003L189.227 59.2326L191.115 60.905L176.292 68.5795C174.201 69.6453 172.644 69.4817 171.185 68.1886C170.581 67.6541 170.144 67.128 169.761 66.5802Z" fill="#F3EEE3"/>
<path d="M198.594 95.8558L208.666 86.5582L209.588 88.9892L203.938 94.1074C202.976 94.9448 202.108 95.6632 201.453 96.1342C202.305 96.0337 203.473 96.0354 204.675 96.0522L212.317 96.1851L213.22 98.5675L199.452 98.1166L198.594 95.8558Z" fill="#F3EEE3"/>
<path d="M219.248 114.007C219.141 113.13 219.776 112.319 220.653 112.213C221.557 112.103 222.341 112.741 222.448 113.619C222.555 114.496 221.945 115.304 221.042 115.413C220.165 115.52 219.354 114.885 219.248 114.007ZM203.488 114.716L216.109 113.184L216.404 115.61L203.783 117.142L203.488 114.716Z" fill="#F3EEE3"/>
<path d="M203.356 133.79C203.801 130.125 206.806 128.238 210.652 128.705C214.524 129.175 217.09 131.765 216.636 135.508C216.401 137.443 215.351 138.966 213.699 139.63L222.114 140.651L221.822 143.052L202.826 140.745L203.089 138.577L205.411 138.65C203.782 137.614 203.111 135.804 203.356 133.79ZM205.49 134.547C205.189 137.025 206.837 138.77 209.47 139.09C212.051 139.403 214.094 138.106 214.395 135.628C214.696 133.151 213.013 131.48 210.432 131.166C207.825 130.85 205.791 132.069 205.49 134.547Z" fill="#F3EEE3"/>
<path d="M198.453 153.636C199.78 150.136 203.221 148.688 206.917 150.089C210.636 151.5 212.319 154.835 211.009 158.287C209.728 161.666 206.555 162.994 203.03 161.657L202.179 161.334L205.64 152.135C203.071 151.356 201.188 152.143 200.33 154.404C199.657 156.179 199.944 157.622 201.158 158.528L200.347 160.667C198.015 159.115 197.337 156.578 198.453 153.636ZM209.089 157.559C209.845 155.565 209.133 153.85 207.153 152.765L204.553 159.62C206.522 160.367 208.324 159.577 209.089 157.559Z" fill="#F3EEE3"/>
<path d="M199.224 167.978C202.455 170.208 203.128 174.085 200.957 177.23C198.801 180.354 194.937 181.099 191.706 178.869C188.475 176.639 187.802 172.762 189.959 169.638C192.13 166.493 195.993 165.748 199.224 167.978ZM197.821 170.011C195.639 168.504 193.159 168.846 191.756 170.879C190.368 172.89 190.912 175.351 193.095 176.858C195.277 178.364 197.771 178.001 199.16 175.989C200.563 173.957 200.004 171.517 197.821 170.011Z" fill="#F3EEE3"/>
<path d="M162.071 194.493C162.969 194.022 164.115 194.36 164.574 195.235C165.045 196.133 164.672 197.268 163.774 197.739C162.9 198.198 161.753 197.86 161.282 196.963C160.823 196.088 161.196 194.952 162.071 194.493Z" fill="#F3EEE3"/>
<defs>
<linearGradient id="paint0_linear_1_1186" x1="221.337" y1="51.2757" x2="21.0519" y2="200.382" gradientUnits="userSpaceOnUse">
<stop stop-color="#04DA00"/>
<stop offset="1" stop-color="#04DA00" stop-opacity="0.2"/>
</linearGradient>
</defs>
</svg>
