<svg width="607" height="27" viewBox="0 0 607 27" fill="none" xmlns="http://www.w3.org/2000/svg">
<path d="M0 3.36402C9.16239 3.11521 14.2572 7.953 18.2312 11.8697C21.9465 15.482 24.9093 18.3174 30.9366 18.213C37.0187 18.0284 39.7932 15.0005 43.3278 11.2035C47.0819 7.08618 51.8392 2.01553 61.0565 1.68662C70.2188 1.43781 75.3137 6.27563 79.2877 10.1923C83.003 13.8046 85.9658 16.64 91.9931 16.5356C98.0752 16.351 100.85 13.3231 104.384 9.52614C108.138 5.40878 112.896 0.338127 122.113 0.00921737C131.275 -0.239588 136.37 4.59823 140.344 8.51492C144.059 12.1272 147.022 14.9626 153.05 14.8582L153.301 22.6759C144.138 22.9247 139.044 18.087 135.07 14.1703C131.354 10.558 128.391 7.72259 122.364 7.82704C116.282 8.0116 113.508 11.0395 109.973 14.8365C106.219 18.9538 101.462 24.0244 92.2443 24.3533C83.0819 24.6021 77.9871 19.7644 74.0131 15.8477C70.2978 12.2354 67.3349 9.39995 61.3076 9.50441C55.2255 9.68897 52.4511 12.7169 48.9164 16.5138C45.1623 20.6312 40.4051 25.7018 31.1878 26.0307C22.0254 26.2795 16.9306 21.4418 12.9566 17.5251C9.24132 13.9128 6.27846 11.0774 0.251191 11.1818L0 3.36402Z" fill="#04DA00"/>
<path d="M302.171 3.36402C311.386 3.11521 316.51 7.953 320.507 11.8697C324.244 15.482 327.224 18.3174 333.286 18.213C339.404 18.0284 342.194 15.0005 345.749 11.2035C349.525 7.08618 354.31 2.01553 363.58 1.68662C372.796 1.43781 377.92 6.27563 381.917 10.1923C385.654 13.8046 388.634 16.64 394.696 16.5356C400.813 16.351 403.603 13.3231 407.159 9.52614C410.934 5.40878 415.719 0.338127 424.99 0.00921737C434.205 -0.239588 439.329 4.59823 443.326 8.51492C447.063 12.1272 450.043 14.9626 456.105 14.8582L456.358 22.6759C447.142 22.9247 442.018 18.087 438.021 14.1703C434.284 10.558 431.304 7.72259 425.242 7.82704C419.125 8.0116 416.335 11.0395 412.78 14.8365C409.004 18.9538 404.219 24.0244 394.948 24.3533C385.733 24.6021 380.609 19.7644 376.612 15.8477C372.875 12.2354 369.895 9.39995 363.833 9.50441C357.716 9.68897 354.925 12.7169 351.37 16.5138C347.594 20.6312 342.81 25.7018 333.539 26.0307C324.324 26.2795 319.199 21.4418 315.202 17.5251C311.466 13.9128 308.486 11.0774 302.424 11.1818L302.171 3.36402Z" fill="#04DA00"/>
<path d="M304.829 3.36402C295.614 3.11521 290.49 7.953 286.493 11.8697C282.756 15.482 279.776 18.3174 273.714 18.213C267.596 18.0284 264.806 15.0005 261.251 11.2035C257.475 7.08618 252.69 2.01553 243.42 1.68662C234.204 1.43781 229.08 6.27563 225.083 10.1923C221.346 13.8046 218.366 16.64 212.304 16.5356C206.187 16.351 203.397 13.3231 199.841 9.52614C196.066 5.40878 191.281 0.338127 182.01 0.00921737C172.795 -0.239588 167.671 4.59823 163.674 8.51492C159.937 12.1272 156.957 14.9626 150.895 14.8582L150.642 22.6759C159.858 22.9247 164.982 18.087 168.979 14.1703C172.716 10.558 175.696 7.72259 181.758 7.82704C187.875 8.0116 190.665 11.0395 194.22 14.8365C197.996 18.9538 202.781 24.0244 212.052 24.3533C221.267 24.6021 226.391 19.7644 230.388 15.8477C234.125 12.2354 237.105 9.39995 243.167 9.50441C249.284 9.68897 252.075 12.7169 255.63 16.5138C259.406 20.6312 264.19 25.7018 273.461 26.0307C282.676 26.2795 287.801 21.4418 291.798 17.5251C295.534 13.9128 298.514 11.0774 304.576 11.1818L304.829 3.36402Z" fill="#04DA00"/>
<path d="M607 3.36402C597.838 3.11521 592.743 7.953 588.769 11.8697C585.054 15.482 582.091 18.3174 576.063 18.213C569.981 18.0284 567.207 15.0005 563.672 11.2035C559.918 7.08618 555.161 2.01553 545.944 1.68662C536.781 1.43781 531.686 6.27563 527.712 10.1923C523.997 13.8046 521.034 16.64 515.007 16.5356C508.925 16.351 506.15 13.3231 502.616 9.52614C498.862 5.40878 494.104 0.338127 484.887 0.00921737C475.725 -0.239588 470.63 4.59823 466.656 8.51492C462.941 12.1272 459.978 14.9626 453.95 14.8582L453.699 22.6759C462.862 22.9247 467.956 18.087 471.93 14.1703C475.646 10.558 478.609 7.72259 484.636 7.82704C490.718 8.0116 493.492 11.0395 497.027 14.8365C500.781 18.9538 505.538 24.0244 514.756 24.3533C523.918 24.6021 529.013 19.7644 532.987 15.8477C536.702 12.2354 539.665 9.39995 545.692 9.50441C551.774 9.68897 554.549 12.7169 558.084 16.5138C561.838 20.6312 566.595 25.7018 575.812 26.0307C584.975 26.2795 590.069 21.4418 594.043 17.5251C597.759 13.9128 600.722 11.0774 606.749 11.1818L607 3.36402Z" fill="#04DA00"/>
</svg>
