<svg width="180" height="60" viewBox="0 0 180 60" fill="none" xmlns="http://www.w3.org/2000/svg">
<circle cx="30" cy="30" r="30" fill="url(#paint0_linear_1_819)"/>
<path d="M60 0C63.9397 0 67.8407 0.775974 71.4805 2.28362C75.1203 3.79126 78.4274 6.00104 81.2132 8.7868C83.999 11.5726 86.2087 14.8797 87.7164 18.5195C89.224 22.1593 90 26.0603 90 30C90 33.9397 89.224 37.8407 87.7164 41.4805C86.2087 45.1203 83.999 48.4274 81.2132 51.2132C78.4274 53.999 75.1203 56.2087 71.4805 57.7164C67.8407 59.224 63.9397 60 60 60L60 30L60 0Z" fill="url(#paint1_linear_1_819)"/>
<path d="M90 0C93.9397 0 97.8407 0.775974 101.481 2.28362C105.12 3.79126 108.427 6.00104 111.213 8.7868C113.999 11.5726 116.209 14.8797 117.716 18.5195C119.224 22.1593 120 26.0603 120 30C120 33.9397 119.224 37.8407 117.716 41.4805C116.209 45.1203 113.999 48.4274 111.213 51.2132C108.427 53.999 105.12 56.2087 101.481 57.7164C97.8407 59.224 93.9397 60 90 60L90 30L90 0Z" fill="url(#paint2_linear_1_819)"/>
<path d="M120 0C123.94 0 127.841 0.775974 131.481 2.28362C135.12 3.79126 138.427 6.00104 141.213 8.7868C143.999 11.5726 146.209 14.8797 147.716 18.5195C149.224 22.1593 150 26.0603 150 30C150 33.9397 149.224 37.8407 147.716 41.4805C146.209 45.1203 143.999 48.4274 141.213 51.2132C138.427 53.999 135.12 56.2087 131.481 57.7164C127.841 59.224 123.94 60 120 60L120 30L120 0Z" fill="url(#paint3_linear_1_819)"/>
<path d="M150 0C153.94 0 157.841 0.775974 161.481 2.28362C165.12 3.79126 168.427 6.00104 171.213 8.7868C173.999 11.5726 176.209 14.8797 177.716 18.5195C179.224 22.1593 180 26.0603 180 30C180 33.9397 179.224 37.8407 177.716 41.4805C176.209 45.1203 173.999 48.4274 171.213 51.2132C168.427 53.999 165.12 56.2087 161.481 57.7164C157.841 59.224 153.94 60 150 60L150 30V0Z" fill="url(#paint4_linear_1_819)"/>
<defs>
<linearGradient id="paint0_linear_1_819" x1="55.8" y1="6" x2="-1.10109" y2="12.7852" gradientUnits="userSpaceOnUse">
<stop stop-color="#04DA00"/>
<stop offset="1" stop-color="#04DA00" stop-opacity="0.2"/>
</linearGradient>
<linearGradient id="paint1_linear_1_819" x1="84" y1="4.2" x2="77.2148" y2="61.1011" gradientUnits="userSpaceOnUse">
<stop stop-color="#04DA00"/>
<stop offset="1" stop-color="#04DA00" stop-opacity="0.2"/>
</linearGradient>
<linearGradient id="paint2_linear_1_819" x1="114" y1="4.2" x2="107.215" y2="61.1011" gradientUnits="userSpaceOnUse">
<stop stop-color="#04DA00"/>
<stop offset="1" stop-color="#04DA00" stop-opacity="0.2"/>
</linearGradient>
<linearGradient id="paint3_linear_1_819" x1="144" y1="4.2" x2="137.215" y2="61.1011" gradientUnits="userSpaceOnUse">
<stop stop-color="#04DA00"/>
<stop offset="1" stop-color="#04DA00" stop-opacity="0.2"/>
</linearGradient>
<linearGradient id="paint4_linear_1_819" x1="174" y1="4.2" x2="167.215" y2="61.1011" gradientUnits="userSpaceOnUse">
<stop stop-color="#04DA00"/>
<stop offset="1" stop-color="#04DA00" stop-opacity="0.2"/>
</linearGradient>
</defs>
</svg>
